/* XPM */
static char *result[] = {
/* columns rows colors chars-per-pixel */
"32 32 107 2 ",
"   c #35361C",
".  c #3F361D",
"X  c #353C1E",
"o  c #393F20",
"O  c #49361F",
"+  c #6C321F",
"@  c #69391D",
"#  c #4D3720",
"$  c #463B20",
"%  c #4C3A21",
"&  c #673D23",
"*  c #763924",
"=  c #3C4522",
"-  c #3F4923",
";  c #404723",
":  c #424C24",
">  c #465125",
",  c #495426",
"<  c #4D5A26",
"1  c #4A5329",
"2  c #4E592A",
"3  c #515D2C",
"4  c #555535",
"5  c #595639",
"6  c #54622C",
"7  c #5A672E",
"8  c #5C6C2F",
"9  c #5F732B",
"0  c #576332",
"q  c #5A6530",
"w  c #5D6B31",
"e  c #5A643E",
"r  c #626528",
"t  c #60742D",
"y  c #656632",
"u  c #626E34",
"i  c #647333",
"p  c #6A7637",
"a  c #6B7D34",
"s  c #717E3B",
"d  c #4C5A51",
"f  c #53525B",
"g  c #697447",
"h  c #9C3A29",
"j  c #AC3B2A",
"k  c #6C8035",
"l  c #718437",
"z  c #75843C",
"x  c #79873F",
"c  c #768A39",
"v  c #7A893E",
"b  c #7C923C",
"n  c #7D8C41",
"m  c #7C836B",
"M  c #839B3D",
"N  c #AAB530",
"B  c #AEB931",
"V  c #E98B33",
"C  c #808F42",
"Z  c #869E41",
"A  c #8BA343",
"S  c #8EA843",
"D  c #8DA54A",
"F  c #92AC45",
"G  c #93AA4B",
"H  c #95B246",
"J  c #96B248",
"K  c #9AB649",
"L  c #9DBA4B",
"P  c #98A450",
"I  c #A0BD4C",
"U  c #A4BC51",
"Y  c #A8AB61",
"T  c #B4AC6D",
"R  c #A2B56C",
"E  c #B0B464",
"W  c #B7BD65",
"Q  c #BBBB6B",
"!  c #A7BA72",
"~  c #AABA7D",
"^  c #B9B072",
"/  c #C2BA75",
"(  c #CCBD7F",
")  c #A3C04D",
"_  c #F8F642",
"`  c #A0AA86",
"'  c #AAB883",
"]  c #BEBFBB",
"[  c #B4C486",
"{  c #B9C88B",
"}  c #DECB8B",
"|  c #DFC390",
" . c #E0CF8B",
".. c #E3D28D",
"X. c #E1C293",
"o. c #E7C499",
"O. c #E8C39B",
"+. c #C3CCA9",
"@. c #D2DBB8",
"#. c #FCD6A7",
"$. c #FDD7A9",
"%. c #FFDAAB",
"&. c #DAE1C3",
"*. c #E4E6DF",
"=. c #E4E6E0",
"-. c #EAEDE5",
";. c #F1F2EE",
/* pixels */
"C C C C C C C C C C C C C C C C C C C C C C C C C C C C C C C C ",
"C C C C C C C C C C C C C C C C C C C C C C C C C C C C C C C C ",
"C C C C C C C C C C C C C C C C C C C C C C C C C C C C C C C C ",
"C C C C C C C C C C C C C C C C C C C C C C C n C C C C C C C C ",
"C C C 0 C C C C C x x x n v v v v v v v v v n n C C C C C C C C ",
"C C 0 B 0 C n x 3 > 1 , 1 > , > 1 1 d > 1 f > 3 z n C C C C C C ",
"C C C C C n x 6 X > 6 6 6 6 7 u u u u 9 u 8 t 8 w s C C C C C C ",
"C C C C C n y %   t A A A M S K I I L K K K I F > q n C C C C C ",
"C C C C C 6 & h # i D D Z D D S L L H S S S F A : u n C C C C C ",
"C C C C n 1 & j # 9 ! +.g ` +.S K c a F J K M 6 o q C C C C C C ",
"C C C C C 2 # * . 9 { *.f ] &.G K c c L I I A w = w n C C C C C ",
"C C C C C 0 =   O r ' =.g ] &.G L L I I I I ) F : w n C C C C C ",
"C C C C C n w $ h @ m -.*.;.@.F L ) L I I I ) F > w n C C C C C ",
"C C C C C C u % j + e ~ [ [ R S K L L I I I ) F > q n 0 C C C C ",
"C C C C C C i o * O < M M M M A F L F c k l l p = w 0 B 0 C C C ",
"C C C C C C p : - X > c M A A S S K Z , X o : : ; u 0 C C C C C ",
"C C C C C C C z z 2 X : v A G U U U U A : 6 x x z n C C C C C C ",
"C C C C C C C C n z < = c Y (  .}  ...( 4 q n n C n C C C C C C ",
"C C C C C C C n u u , = v ^ O.$.%.%.%.O.5 w n C C C C C C C C C ",
"C C C C C C C z = = > < M ^ O.$.%.%.%.O.5 w n C C C C C C C C C ",
"C C C C C C C z = i S F A T X.#.%.%.$.| 5 q n n C C C C C C C C ",
"C C C C C C C s ; > k S A P U / | o.} E 1 w n n C C C C C C C C ",
"C C C C C C C n 7 = = t M S H I Q / W J a w p n C C C C C C C C ",
"C C C C C C C C C 3 X , b H K S A Z F K L w 1 n C C C C C C C C ",
"C C C C C C C C C 2 1 c M G v > : - 7 Z J 7 1 n C C C C C C C C ",
"C C C C V C C C C 2 = 3 3 3 7 u u u 7 3 6 - 1 0 C C C C C C C C ",
"C C C V _ V C C C i 2 2 < 1 u n C C z 2 2 1 1 N 0 q n C C C C C ",
"C C C 5 V C C C C C C C C C C C C C C C C n C C 0 B 0 C C C C C ",
"C C 0 0 C C C C C C C C C C C C C C C C C C C C C C C C C C C C ",
"C C n q C C C C C C C C C C C C C C C C C C C C C C C C C C C C ",
"C C C C C C C C C C C C C C C C C C C C C C C C C C C C C C C C ",
"C C C C C C C C C C C C C C C C C C C C C C C C C C C C C C C C "
};
