/* XPM */
static char *result[] = {
/* columns rows colors chars-per-pixel */
"32 32 108 2 ",
"   c #37351C",
".  c #353D1E",
"X  c #47371E",
"o  c #4F3C20",
"O  c #543720",
"+  c #653923",
"@  c #713723",
"#  c #733A23",
"$  c #3B401F",
"%  c #3C4522",
"&  c #3F4823",
"*  c #474021",
"=  c #434D24",
"-  c #474F28",
";  c #4B4D2E",
":  c #455024",
">  c #495227",
",  c #4A5329",
"<  c #4E5929",
"1  c #515C2B",
"2  c #5F5C2E",
"3  c #505231",
"4  c #684529",
"5  c #55632C",
"6  c #58632D",
"7  c #5C6C2E",
"8  c #576332",
"9  c #5B6731",
"0  c #5E6D30",
"q  c #5F7031",
"w  c #626E33",
"e  c #647134",
"r  c #6B7637",
"t  c #6C7F35",
"y  c #6A7638",
"u  c #6D7A39",
"i  c #717E3B",
"p  c #4C5A51",
"a  c #53525B",
"s  c #66754A",
"d  c #6B764B",
"f  c #79714C",
"g  c #933A28",
"h  c #A53B29",
"j  c #817951",
"k  c #6D8236",
"l  c #6D8339",
"z  c #718437",
"x  c #75843D",
"c  c #78863E",
"v  c #758A39",
"b  c #7A8A3E",
"n  c #7D923C",
"m  c #7D8C41",
"M  c #7F9140",
"N  c #81963E",
"B  c #849C3D",
"V  c #AEB931",
"C  c #E98B33",
"Z  c #808F42",
"A  c #869744",
"S  c #869C41",
"D  c #889F40",
"F  c #908E55",
"G  c #8BA342",
"H  c #8FA844",
"J  c #8EA549",
"K  c #91AB45",
"L  c #98AE4B",
"P  c #96B147",
"I  c #98B347",
"U  c #96B248",
"Y  c #9AB649",
"T  c #9DBA4B",
"R  c #9DA358",
"E  c #A0BD4C",
"W  c #A4BC51",
"Q  c #9EB164",
"!  c #ABA169",
"~  c #B1AF68",
"^  c #B8AC72",
"/  c #C6B67D",
"(  c #B5C063",
")  c #F8F642",
"_  c #8F9984",
"`  c #A9B38E",
"'  c #C5A983",
"]  c #C8AF83",
"[  c #D0B189",
"{  c #E0BF94",
"}  c #B2C283",
"|  c #B8C78C",
" . c #B8C498",
".. c #D0C082",
"X. c #D8C786",
"o. c #C5D29F",
"O. c #E1D08C",
"+. c #E1C195",
"@. c #CED9AF",
"#. c #F0C9A2",
"$. c #FAD6A6",
"%. c #FAD7A8",
"&. c #FDDAAC",
"*. c #C7C9C2",
"=. c #CECFCC",
"-. c #D7D9D4",
";. c #E6E8E0",
":. c #F0F3EC",
/* pixels */
"Z Z Z Z Z Z Z Z Z Z Z Z Z Z Z Z Z Z Z Z A m m Z Z Z Z Z Z Z Z Z ",
"Z Z Z Z Z Z Z Z Z M Z Z Z Z Z Z Z Z Z Z m m Z Z Z Z Z Z Z Z Z Z ",
"Z Z Z Z Z Z Z Z M m M M Z Z Z Z Z Z Z Z m A M m Z Z Z Z Z Z Z Z ",
"Z Z Z Z Z Z Z Z m M M M Z Z Z Z Z Z Z Z M M m m Z Z Z Z Z Z Z Z ",
"Z Z Z 8 Z Z Z m m b m b m m m m m m m m m x m m Z Z Z Z Z Z Z Z ",
"Z Z 8 V 8 Z m x 1 : - > : - : , , ; p , : a , 8 m Z Z Z Z Z Z Z ",
"Z Z Z Z m m u 1 $ : 5 5 5 5 7 q q q q q 0 q q 0 0 d Z Z Z Z Z Z ",
"Z Z Z Z M i 2 o $ l G M G G H T T E T Y Y Y T S > e Z Z Z Z Z Z ",
"Z Z Z Z c 1 # g o l J J A J J K T Y P H G H P n = e Z Z Z Z Z Z ",
"Z Z Z Z c - @ h * l }  .d `  .J P l l I I U n < $ e Z Z Z Z Z Z ",
"Z Z Z Z x > O @ * l o.=.a *.@.H P v n E E T S < & e Z Z Z Z Z Z ",
"Z Z Z Z m 1 .   o r  .-.m *.@.H T T E E E E T D : e Z Z Z Z Z Z ",
"Z Z Z Z m m 6 O g 4 _ :.;.:.o.H T E E E E E E D = e Z Z Z Z Z Z ",
"Z Z Z Z m m 8 O h + s ( | ` Q H T E E E T E E B = e Z 8 Z Z Z Z ",
"Z Z Z Z m m 8 X # X 6 B B B B H P T G l k z z e & e 8 V 8 Z Z Z ",
"Z Z Z Z Z m w & & . 5 n G D H H H Y v : . $ & & - u 8 Z Z Z Z Z ",
"Z Z Z Z Z Z m x t > . < S J L W E E W N = 9 c x c m Z Z Z Z Z Z ",
"Z Z Z Z Z Z Z Z m u , = A ~ ..O.O.O.O.^ , e Z Z Z Z Z Z Z Z Z Z ",
"Z Z Z Z Z Z m c 0 9 > : A / #.&.&.&.&.[ 3 w Z Z Z Z Z Z Z Z Z Z ",
"Z Z Z Z Z Z m u % & : 5 A ! ' +.$.&.%.[ 3 w Z Z Z Z Z Z Z Z Z Z ",
"Z Z Z Z Z Z m u & l K H B 0 ; f { %.$.] 3 e m Z Z Z Z Z Z Z Z Z ",
"Z Z Z Z Z Z m u % < v J D n v v j ' X.R = e m A Z Z Z Z Z Z Z Z ",
"Z Z Z Z Z Z m x 1 % : k D I T n = F ( B : e m m Z Z Z Z Z Z Z Z ",
"Z Z Z Z Z m A m c 1 $ < v v v e = b Y b < r A m Z Z Z Z Z Z Z Z ",
"Z Z Z Z Z Z Z Z Z c x y = = % $ = v x 1 i m Z Z Z Z Z Z Z Z Z Z ",
"Z Z Z Z C Z Z Z Z Z Z m y 9 , % q e 9 y m Z Z 8 Z Z Z Z Z Z Z Z ",
"Z Z Z C ) C Z Z Z Z Z Z Z m 8 % 7 6 w Z Z Z 8 V 8 8 Z Z Z Z Z Z ",
"Z Z Z 8 C Z Z Z Z Z Z Z Z m w * : u Z Z Z Z Z Z 8 V 8 Z Z Z Z Z ",
"Z Z 8 8 Z Z Z Z Z Z Z Z Z Z b c x m m Z Z Z Z Z Z Z Z Z Z Z Z Z ",
"Z Z Z 8 Z Z Z Z Z Z Z Z Z Z Z Z A m Z Z Z Z Z Z Z Z Z Z Z Z Z Z ",
"Z Z Z Z Z Z Z Z Z Z Z Z Z Z Z Z Z Z Z Z Z Z Z Z Z Z Z Z Z Z Z Z ",
"Z Z Z Z Z Z Z Z Z Z Z Z Z Z Z Z Z Z Z Z Z Z Z Z Z Z Z Z Z Z Z Z "
};
