/* XPM */
static char *result[] = {
/* columns rows colors chars-per-pixel */
"32 32 105 2 ",
"   c #35361C",
".  c #3E361D",
"X  c #353C1E",
"o  c #383F20",
"O  c #47361E",
"+  c #6E3B1F",
"@  c #453F21",
"#  c #5B3420",
"$  c #523C22",
"%  c #5B3821",
"&  c #653D23",
"*  c #773320",
"=  c #753923",
"-  c #7A3824",
";  c #3B4421",
":  c #3F4922",
">  c #4A4122",
",  c #424C24",
"<  c #475126",
"1  c #4B5627",
"2  c #4A5329",
"3  c #4E5B29",
"4  c #515D2C",
"5  c #545F30",
"6  c #634425",
"7  c #56642C",
"8  c #59672D",
"9  c #5B6B2D",
"0  c #576332",
"q  c #596530",
"w  c #5D6A32",
"e  c #5F613A",
"r  c #686E35",
"t  c #647334",
"y  c #6B7737",
"u  c #6B7837",
"i  c #717E3B",
"p  c #4C5A57",
"a  c #696243",
"s  c #545163",
"d  c #7D7E66",
"f  c #8C3927",
"g  c #933B28",
"h  c #A33B29",
"j  c #AA3B29",
"k  c #6E8136",
"l  c #718437",
"z  c #74833C",
"x  c #78863E",
"c  c #768A39",
"v  c #798A3E",
"b  c #7D933B",
"n  c #7E8C41",
"m  c #81973E",
"M  c #859E3D",
"N  c #AEB931",
"B  c #E98B33",
"V  c #808F42",
"C  c #869E40",
"Z  c #889F40",
"A  c #8BA342",
"S  c #8FA944",
"D  c #93AD46",
"F  c #91A84B",
"G  c #96B146",
"H  c #97B348",
"J  c #9AB649",
"K  c #9EBA4B",
"L  c #98A450",
"P  c #9AAF59",
"I  c #9CB15B",
"U  c #A0BD4C",
"Y  c #A1A75A",
"T  c #9DB167",
"R  c #98A27A",
"E  c #B1AC6A",
"W  c #ADB162",
"Q  c #BBBC6B",
"!  c #A9BA75",
"~  c #A5B47C",
"^  c #C3B977",
"/  c #C7BC7A",
"(  c #A4C24E",
")  c #F8F642",
"_  c #C3C272",
"`  c #9FA19A",
"'  c #AFB0AA",
"]  c #BAC98F",
"[  c #B7C590",
"{  c #BAC890",
"}  c #BDC89C",
"|  c #DBCD86",
" . c #DFC590",
".. c #E2C294",
"X. c #EAC69B",
"o. c #EAC89D",
"O. c #FBD4A7",
"+. c #FBD5A9",
"@. c #FFD9AB",
"#. c #D5DDC2",
"$. c #DAE2C6",
"%. c #DEE1D5",
"&. c #E3E6E1",
"*. c #E9EAE7",
"=. c #F4F3F4",
/* pixels */
"V V V V V V V V V V V V V V V V V V V V V V V V V V V V V V V V ",
"V V V V V V V V V V V V V V V V V V V V V V V V V V V V V V V V ",
"V V V V V V V V V V V V V V V V V V V V V V V V V V V V V V V V ",
"V V V V V V V V V V V V V V V V V V V V V V V V V V V V V V V V ",
"V V V 0 V V V V V V V V V V V V V V V V V V V V V V V V V V V V ",
"V V 0 N 0 V V n q 2 2 2 2 2 1 < 2 2 p 2 2 s 2 3 i n V V V V V V ",
"V V V V V V x w ; , 4 4 4 3 7 7 8 7 8 8 7 7 q 8 r i n n V V V V ",
"V V V V V n t >   9 M Z M M A H K U U J J J U D 3 0 n V V V V V ",
"V V V V V w 6 g $ w A A M M Z D K U J S A A D D 3 7 n n V V V V ",
"V V V V n 3 & j % 9 T } d R [ F J c k S J J C 9 ; q x V V V V V ",
"V V V V V 7 $ - O 9 ! %.p ` #.I H c k J U ( A 9 ; 8 x V V V V V ",
"V V V V n 0 ;   . 8 ~ %.R ' #.P K K K U U K U D 3 0 n n V V V V ",
"V V V V V n w > f + d &.*.=.$.P H ( K K U U ( G 3 q n V V V V V ",
"V V V V V n t > h * e ~ ] { ! F J K ( ( ( ( ( H 3 q x 0 V V V V ",
"V V V V V V t @ = # 1 b M M M A D K D b c b c k , 0 4 N 0 V V V ",
"V V V V V V u , ;   < c M A A A A H C 1 X X ; ; ; w 0 V V V V V ",
"V V V V V V n z i 3 o , c Z F H K K K A < 4 i z z n V V V V V V ",
"V V V V V V V V V z 4 : k Y ^ | | | | | e 0 v V V V V V V V V V ",
"V V V V V V V n y r 3 ; l E ..+.@.@.+.o.a 0 n n V V V V V V V V ",
"V V V V V V V z , ; , , c E ..O.+.@.+.X.a 5 i n V V V V V V V V ",
"V V V V V V V z , t A S A E  .O.@.@.@.o.a X 3 n V V V V V V V V ",
"V V V V V V V n , < k S S L W _  .o..._ A 3 < z V V V V V V V V ",
"V V V V V V n n 7 ; : t m S G U Q / Q K K t < z V V V V V V V V ",
"V V V V V V V n n q o ; k D K D D D A V b 9 3 x V V V V V V V V ",
"V V V V V V V V V n w : z H M 3 : ; ; , , 0 z V V V V V V V V V ",
"V V V V B V V V V V t < z l w w w r w w q i V 0 V V V V V V V V ",
"V V V B ) B V V V V r ; 8 7 q x V n V V V V 0 N 5 0 V V V V V V ",
"V V V 0 B V V V n n u : ; w x n V V V V V V V V 0 N 0 V V V V V ",
"V V 0 0 V V V V V V n n z n V V V V V V V V V V V V V V V V V V ",
"V V V 0 V V V V V V V V n V V V V V V V V V V V V V V V V V V V ",
"V V V V V V V V V V V V n V V V V V V V V V V V V V V V V V V V ",
"V V V V V V V V V V V V V V V V V V V V V V V V V V V V V V V V "
};
