/* XPM */
static char *result[] = {
/* columns rows colors chars-per-pixel */
"32 32 122 2 ",
"   c #36371D",
".  c #3C351D",
"X  c #343C1E",
"o  c #44371E",
"O  c #63331F",
"+  c #68351C",
"@  c #523720",
"#  c #633821",
"$  c #693C23",
"%  c #733923",
"&  c #38411F",
"*  c #3C4421",
"=  c #3F4822",
"-  c #424C25",
";  c #494B2D",
":  c #465126",
">  c #495427",
",  c #475728",
"<  c #4B5629",
"1  c #4D5B29",
"2  c #515C2B",
"3  c #4F4F31",
"4  c #494F38",
"5  c #465234",
"6  c #505033",
"7  c #5D5C3B",
"8  c #645322",
"9  c #66512A",
"0  c #54612B",
"q  c #59642F",
"w  c #5B6A2E",
"e  c #576332",
"r  c #5A6630",
"t  c #5E6A32",
"y  c #61752E",
"u  c #616D33",
"i  c #657335",
"p  c #697637",
"a  c #657A32",
"s  c #6A7C34",
"d  c #697638",
"f  c #6D7A39",
"g  c #727F3B",
"h  c #525743",
"j  c #575F41",
"k  c #6D795C",
"l  c #A23A29",
"z  c #AD3B2A",
"x  c #6E8237",
"c  c #708437",
"v  c #75843C",
"b  c #78863E",
"n  c #758A39",
"m  c #7A8A3E",
"M  c #7D923C",
"N  c #7E8D41",
"B  c #80963E",
"V  c #839A3F",
"C  c #87A03E",
"Z  c #8AA33F",
"A  c #ACB731",
"S  c #AEB931",
"D  c #B9BA36",
"F  c #E98B33",
"G  c #808F42",
"H  c #829043",
"J  c #869D40",
"K  c #8BA442",
"L  c #8DA842",
"P  c #93AD45",
"I  c #96B247",
"U  c #98B347",
"Y  c #97B248",
"T  c #9CB64B",
"R  c #9DB94B",
"E  c #9BA752",
"W  c #94A954",
"Q  c #99AE59",
"!  c #A1BE4C",
"~  c #A5AD5C",
"^  c #AAB25F",
"/  c #AABC58",
"(  c #95A661",
")  c #B5AF6D",
"_  c #B1B166",
"`  c #BBAF74",
"'  c #A3B471",
"]  c #BCB073",
"[  c #C2AC7F",
"{  c #C7B47F",
"}  c #A3C14D",
"|  c #BCC467",
" . c #BCC568",
".. c #F8F642",
"X. c #796FA1",
"o. c #6B808C",
"O. c #9AA581",
"+. c #89A4BD",
"@. c #ACB1A0",
"#. c #B1B3AD",
"$. c #C9AF86",
"%. c #CCBB80",
"&. c #DDBF90",
"*. c #B6C785",
"=. c #BBCA8E",
"-. c #DBC08D",
";. c #E6C399",
":. c #EAC59D",
">. c #EEC99E",
",. c #F3D59E",
"<. c #D1DAB3",
"1. c #F7CFA5",
"2. c #F5D9A1",
"3. c #FFDAAB",
"4. c #9D8CDC",
"5. c #D7DEC3",
"6. c #D7DBCC",
"7. c #D9E1C3",
"8. c #DDE3CA",
"9. c #E2E3DF",
"0. c #E0DFE1",
"q. c gray95",
/* pixels */
"G G G G G G G G H N H N H N H N H N H J H N H N H N N H N H N H ",
"G G G G G G G G N H N H N H N H N H N N N H N H N H H H H N H N ",
"G G G G G G G G H N N H H N H N N H N H H N N H J N H N N H N J ",
"G G G G G G G G H N H N N H N H H N H N N H H N N N N H H N N N ",
"N H H e G G G G N H N H J N N N N H H N H N N H H N H N N H H N ",
"H N e S e G G G H N H N N N N N H N +.N H 4.H N N H N H H N N H ",
"N H N H G G G N f i i i j x x a a o.D o.X.D X.d N H H N J N H N ",
"H N H G G G G f - = - - - , = = , : 5 = , 4 - < c M N N N H N H ",
"N H N H H N f - X r n c c c n M V B H J J B V m 1 d G G G G G G ",
"H N H N N i 9 % . a K C L M L I R } R P P P R P - t N G G G G G ",
"H M N H G < $ z o a Q ' N ( ' L R L J L L P L n * t N G G G G G ",
"N H H N N , # l o y *.6.j @.<.P R s a T R ! B : X u N G G G G G ",
"H N N H N 1 . @   y =.9.h #.7.L R L L R ! ! Y m * u G G G G G G ",
"N H H N N s ,   $ 8 O.q.#.0.7.L R R ! ! ! ! ! P - t G e G G G G ",
"H N H H H N t o z + k 7.5.8.-.W R ! ! ! ! } } P - r e S e G G G ",
"N H H N N H y o l O 0 W Q Q W M T ! R P P Y Y J = t e G G G G G ",
"G G G G G G u   @ . 1 J K C Z C L R J 1 < 2 2 < X u G G G G G G ",
"G G G G G N v r q * = y B C K I P R L y & : q q q g G G G G G G ",
"G G G G G G N m m r * = M E ^ |  .|  .~ - e N N m G G G G G G G ",
"G G G G G G H N G m w & M ) -.,.,.,.2.-.3 e N G G G G G G G G G ",
"G G G G G G G N G G u * M ] :.3.3.3.3.;.6 r G G G G G G G G G G ",
"G G G G G G G N r 2 r c B ` >.3.3.3.3.;.6 t G G G G G G G G G G ",
"G G G G G G G v * : c P K _ $.$.>.1.,.%.; < c G G G G G G G G G ",
"G G G G G G G v * i J J K T H 7 [ &.{ ! 1 X 2 G G G G G G G G G ",
"G G G G G G G v * - > 2 B P s - E | / R J 1 < G G G G G G G G G ",
"G G G G F G G N t r > X 0 w < X w a n U ! w ; 2 G G G G G G G G ",
"G G G F ..F G N N b p > > < > > > & > x M w - A e e G G G G G G ",
"G G G e F G G G G N N v v v v v v 1 * - - i b G e S e G G G G G ",
"G G e e G G G G G G G G G G G G N v p p p b G G G G G G G G G G ",
"G G G e G G G G G G G G G G G G G N N N G G G G G G G G G G G G ",
"G G G G G G G G G G G G G G G G G G G G G G G G G G G G G G G G ",
"G G G G G G G G G G G G G G G G G G G G G G G G G G G G G G G G "
};
