/* XPM */
static char *result[] = {
/* columns rows colors chars-per-pixel */
"32 32 113 2 ",
"   c #2D351B",
".  c #36371C",
"X  c #373F1F",
"o  c #3B3C1F",
"O  c #42361E",
"+  c #413A1F",
"@  c #5A331F",
"#  c #6E331F",
"$  c #4D3720",
"%  c #473D21",
"&  c #573921",
"*  c #683B23",
"=  c #374020",
"-  c #3B4321",
";  c #3F4922",
":  c #67431F",
">  c #474223",
",  c #434D25",
"<  c #465125",
"1  c #495427",
"2  c #4C5827",
"3  c #4B542A",
"4  c #4D5A29",
"5  c #525C2C",
"6  c #575638",
"7  c #595638",
"8  c #654727",
"9  c #55622D",
"0  c #5A662F",
"q  c #5E6C2E",
"w  c #5F742B",
"e  c #576332",
"r  c #5A6631",
"t  c #5D6932",
"y  c #616C29",
"u  c #60742E",
"i  c #606D33",
"p  c #666E39",
"a  c #657335",
"s  c #6A7737",
"d  c #6B7938",
"f  c #575D46",
"g  c #626B49",
"h  c #707F46",
"j  c #605B77",
"k  c #566768",
"l  c #6C7060",
"z  c #853925",
"x  c #893926",
"c  c #AD3B2A",
"v  c #718437",
"b  c #75843D",
"n  c #79873E",
"m  c #758939",
"M  c #798A3D",
"N  c #7D933C",
"B  c #7E8D41",
"V  c #80963E",
"C  c #849B3E",
"Z  c #AEB931",
"A  c #E98B33",
"S  c #808F42",
"D  c #869E40",
"F  c #889F41",
"G  c #87A041",
"H  c #8AA242",
"J  c #8FA944",
"K  c #8FA649",
"L  c #8FA848",
"P  c #92AC45",
"I  c #92AA4D",
"U  c #99AF4C",
"Y  c #95B046",
"T  c #97B248",
"R  c #9AB549",
"E  c #9EBA4B",
"W  c #A0BE4C",
"Q  c #A1A859",
"!  c #9B8B64",
"~  c #9F8D69",
"^  c #889073",
"/  c #A39B63",
"(  c #9BA877",
")  c #B7AE6F",
"_  c #A0B567",
"`  c #B8AF70",
"'  c #AEBF7F",
"]  c #BCB770",
"[  c #BEB871",
"{  c #C0AD7B",
"}  c #A4C14E",
"|  c #F8F642",
" . c #D2CC7D",
".. c #B0BF86",
"X. c #A9ACA1",
"o. c #B6B7B2",
"O. c #B4C485",
"+. c #B6C391",
"@. c #BAC798",
"#. c #C2CF9E",
"$. c #E3C396",
"%. c #E6CB94",
"&. c #E8C39A",
"*. c #D5DEBC",
"=. c #F7D6A4",
"-. c #FAD7A6",
";. c #FED7A8",
":. c #FEDAAA",
">. c #D7DFC0",
",. c #D3D5D0",
"<. c #D8E1C2",
"1. c #E3E5DE",
"2. c #EDEDEC",
/* pixels */
"S S S S S S S S S S S S S S S S S S S S S S S S S S S S S S S S ",
"S S S S S S S S S S S S S S S S S S S S S S S S S S S S S S S S ",
"S S S S S S S S S S S S S S S S S S S S S S S S S S S S S S S S ",
"S S S S S S S S S S S S S S S S S S S S S S S S S S S S S S S S ",
"S S S e S S S S S S S S S S S S S S B S S S B S S S S S S S S S ",
"S S e Z e S S B q 5 5 5 5 5 5 5 5 5 k 5 5 j 5 r B S S S S S S S ",
"S S S S S S n t - , 4 2 5 4 4 9 0 e q e e q e 9 a b B S S S S S ",
"S S S S S B s > . q V V N V C P P P P P P L P G 3 t B S S S S S ",
"S S S S S r 8 x O a H H H H H P E } R P J J T P < t B S S S S S ",
"S S S S S 4 * c $ u _ +.h ( O.K R M m P P T D u - t B S S S S S ",
"S S S S S 3 & x O w O.1.f X.*.I R m v R W W G 9 = t B S S S S S ",
"S S S S S 5 o o O y ..1.l o.<.I R Y T W W W E D , t B B S S S S ",
"S S S S S b 5 % z : ^ 2.,.2.>.P R W W W W W } P < t B B S S S S ",
"S S S S S B a + c # g @.#.#.' K E W W } } } } Y < t B e S S S S ",
"S S S S S S i + z @ 5 H K K H H Y W Y N V N N m ; t e Z e S S S ",
"S S S S S S s - + . 2 N C H H H J R C 2 ; , < , - i e S S S S S ",
"S S S S S S n d d < X 2 V F J Y R E R M ; 4 s s s B B S S S S S ",
"S S S S S S S B S d < ; m Q [  . . . .] 3 t B B B B S S S S S S ",
"S S S S S S S B d s 3 - m ` $.=.-.-.:.%.6 t B S B S S S S S S S ",
"S S S S S S B n , , , , N ` &.;.:.:.:.$.7 t B S B S S S S S S S ",
"S S S S S S S b - i C C F ) &.;.:.:.:.&.7 t B B S S S S S S S S ",
"S S S S S S S b - 4 m P H Q / ~ $.&.%.[ 3 t B S S S S S S S S S ",
"S S S S S S S n 5 X 1 v C P V p ! ` { U < t B S S S S S S S S S ",
"S S S S S S S S b 5 - < m P R G 5 B R H 3 t B S S S S S S S S S ",
"S S S S S S S S S b s a 5 v T P < ; 4 5 a b S S S S S S S S S S ",
"S S S S A S S S S S B n i 9 a y -   - r B S S e S S S S S S S S ",
"S S S A | A S S S S S S n i 3 < < , e n B B e Z e e S S S S S S ",
"S S S e A S S S S S S S S n b b b n n S S S S S e Z e S S S S S ",
"S S e e S S S S S S S S S S S S S S S S S S S S S S S S S S S S ",
"S S S e S S S S S S S S S S S S S S S S S S S S S S S S S S S S ",
"S S S S S S S S S S S S S S S S S S S S S S S S S S S S S S S S ",
"S S S S S S S S S S S S S S S S S S S S S S S S S S S S S S S S "
};
