/* XPM */
static char *result[] = {
/* columns rows colors chars-per-pixel */
"32 32 124 2 ",
"   c #3D3B1F",
".  c #45361E",
"X  c #423A1F",
"o  c #613722",
"O  c #6B3722",
"+  c #663822",
"@  c #6B3822",
"#  c #7C3C25",
"$  c #3F4822",
"%  c #444423",
"&  c #4E4724",
"*  c #434C25",
"=  c #564725",
"-  c #544C23",
";  c #465025",
":  c #4B5526",
">  c #4B5429",
",  c #4E592A",
"<  c #535627",
"1  c #53542A",
"2  c #5D542A",
"3  c #525C2C",
"4  c #555B30",
"5  c #614D31",
"6  c #55612D",
"7  c #58642F",
"8  c #5A692D",
"9  c #576332",
"0  c #5A6630",
"q  c #5D6B31",
"w  c #5F7030",
"e  c #626D34",
"r  c #657534",
"t  c #6A7637",
"y  c #677933",
"u  c #6A7C34",
"i  c #6A7738",
"p  c #6D7B39",
"a  c #707E3A",
"s  c #746847",
"d  c #615F71",
"f  c #596A64",
"g  c #656176",
"h  c #8C3724",
"j  c #8A3926",
"k  c #6F8237",
"l  c #728637",
"z  c #74833C",
"x  c #78873E",
"c  c #768B3A",
"v  c #7A8B3D",
"b  c #7D933E",
"n  c #7D8B40",
"m  c #7E8274",
"M  c #898E2E",
"N  c #80963D",
"B  c #82993D",
"V  c #AEB931",
"C  c #E98B33",
"Z  c #808F42",
"A  c #869D41",
"S  c #879349",
"D  c #83994E",
"F  c #919E4C",
"G  c #878651",
"H  c #889157",
"J  c #9F9D5E",
"K  c #87A040",
"L  c #8BA342",
"P  c #8EA843",
"I  c #8CA249",
"U  c #93AD46",
"Y  c #92A54A",
"T  c #92AA4C",
"R  c #9AAB4F",
"E  c #96B147",
"W  c #97B248",
"Q  c #9AB549",
"!  c #9EBA4B",
"~  c #8DA05C",
"^  c #9EA358",
"/  c #9CB05E",
"(  c #A1BE4C",
")  c #A3AB5A",
"_  c #A4BA52",
"`  c #A6B458",
"'  c #978962",
"]  c #9B8A65",
"[  c #8B996D",
"{  c #A6946C",
"}  c #AB996F",
"|  c #94A070",
" . c #A2B668",
".. c #B4B26A",
"X. c #B5A772",
"o. c #A3C04D",
"O. c #AFC07D",
"+. c #F8F642",
"@. c #CDC37D",
"#. c #7D96AA",
"$. c #9B9E94",
"%. c #B1B3AB",
"&. c #B6BDA9",
"*. c #CBB483",
"=. c #D2BA87",
"-. c #D5BB8A",
";. c #DAB992",
":. c #B4C485",
">. c #B6C589",
",. c #BFCD98",
"<. c #D6CD82",
"1. c #E9C79C",
"2. c #ECCD9C",
"3. c #C6CBB8",
"4. c #CFD7B6",
"5. c #F4CEA2",
"6. c #F2D0A3",
"7. c #F8D7A7",
"8. c #FDD7A8",
"9. c #FFD9AA",
"0. c #8F81C5",
"q. c #CFD4C3",
"w. c #DBDDD3",
"e. c #DBE0CA",
/* pixels */
"Z Z Z Z Z Z Z Z n S n n Z Z Z Z Z Z Z Z n n A S n n Z Z Z Z Z Z ",
"Z Z Z Z Z Z Z Z n A n A Z Z Z Z Z Z Z Z S n n n Z Z Z Z Z Z Z Z ",
"Z Z Z Z Z Z Z Z D n n n Z Z Z Z Z Z Z Z S n n S Z Z Z Z Z Z Z Z ",
"Z Z Z Z Z Z Z Z n n n n Z Z Z Z Z Z Z Z n A n n Z Z Z Z Z Z Z Z ",
"Z Z Z 9 Z Z Z Z n n n n n n n n Z Z n n n n n n Z Z Z Z Z Z Z Z ",
"Z Z 9 V 9 Z Z n n l n n n n n c n n #.n n 0.z n Z Z Z Z Z Z Z Z ",
"Z Z Z Z Z n n t 6 6 6 6 3 3 6 6 , f M f d M g y n Z Z Z Z Z Z Z ",
"Z Z Z Z Z v t > $ : 3 , 3 3 6 8 8 8 8 8 7 8 7 q u n Z Z Z Z Z Z ",
"Z Z Z Z n t 2 X > c B b b b P U W E U U U E P y 6 p Z Z Z Z Z Z ",
"Z Z Z Z p 2 # O 1 n T I I T W Q ! Q U U U E P r , p Z Z Z Z Z Z ",
"Z Z Z Z r = j # < D :.| m X. .E P c A E E P c : > z n Z Z Z Z Z ",
"Z Z Z Z r & O o : ~ 4.$.[ 3.:.U K l K ! ( E k ; > p n Z Z Z Z Z ",
"Z Z Z Z p >   . - H 4.%.$.q.:.U ! ! ! ! ! ( E r , p Z Z Z Z Z Z ",
"Z Z Z Z n r * + # s &.w.w.e.O.E ! _ ( ( o.o.! u , z Z 9 Z Z Z Z ",
"Z Z Z Z n a 1 # h 5 [ ,.,.>./ U ! ( ! ! ! ! W y , p 9 V 9 Z Z Z ",
"Z Z Z Z Z a > o @ - k K K K K U ! W A c c c c 9 , p 9 Z Z Z Z Z ",
"Z Z Z Z Z z 7 % % $ w b A L K P E P y ; $ ; > * 4 z Z Z Z Z Z Z ",
"Z Z Z Z Z Z a i 8 $ ; r A Y Q _ _ _ Y q ; 0 i i a n Z Z Z Z Z Z ",
"Z Z Z Z Z Z Z Z z 8 % 8 F ..@.<.<.<.@.G 4 p Z Z n Z Z Z Z Z Z Z ",
"Z Z Z Z Z Z Z n Z p 3 8 ^ -.5.9.9.9.6.] 4 p Z Z Z Z Z Z Z Z Z Z ",
"Z Z Z Z Z Z n n a r 9 r ^ *.;.1.8.9.6.] 4 p Z Z Z Z Z Z Z Z Z Z ",
"Z Z Z Z Z Z n e > 3 c A ) X.' } 2.7.2.' 4 p Z Z Z Z Z Z Z Z Z Z ",
"Z Z Z Z Z Z v 9 ; r B U R ) S n { -.=.n 4 p Z Z Z Z Z Z Z Z Z Z ",
"Z Z Z Z Z Z v 8 : y l c I ! Q u q J ` u > p Z Z Z Z Z Z Z Z Z Z ",
"Z Z Z Z Z Z n e ; ; > q N Q Q u , k A r 9 z Z Z Z Z Z Z Z Z Z Z ",
"Z Z Z Z C Z Z z i i t 7 8 b P r $ ; 3 q a n Z 9 Z Z Z Z Z Z Z Z ",
"Z Z Z C +.C Z Z Z Z n 9 * 6 8 , * , q p n Z 9 V 9 9 Z Z Z Z Z Z ",
"Z Z Z 9 C Z Z Z Z Z n t , : , : 0 z Z Z Z Z Z Z 9 V 9 Z Z Z Z Z ",
"Z Z 9 9 Z Z Z Z Z Z Z n x n n n n n Z Z Z Z Z Z Z Z Z Z Z Z Z Z ",
"Z Z Z 4 Z Z Z Z Z Z Z Z n n n Z Z Z Z Z Z Z Z Z Z Z Z Z Z Z Z Z ",
"Z Z Z Z Z Z Z Z Z Z Z Z Z Z Z Z Z Z Z Z Z Z Z Z Z Z Z Z Z Z Z Z ",
"Z Z Z Z Z Z Z Z Z Z Z Z Z Z Z Z Z Z Z Z Z Z Z Z Z Z Z Z Z Z Z Z "
};
