/* XPM */
static char *result[] = {
/* columns rows colors chars-per-pixel */
"32 32 108 2 ",
"   c #33361C",
".  c #343A1E",
"X  c #3B381D",
"o  c #383F20",
"O  c #42371E",
"+  c #4A371F",
"@  c #43381F",
"#  c #67311C",
"$  c #473920",
"%  c #563720",
"&  c #653E20",
"*  c #6C3B23",
"=  c #7F3924",
"-  c #3B4321",
";  c #3F4922",
":  c #414B23",
">  c #454C28",
",  c #475327",
"<  c #495427",
"1  c #475328",
"2  c #4A5329",
"3  c #4F5D29",
"4  c #525E2C",
"5  c #4E4F30",
"6  c #55612D",
"7  c #5B692E",
"8  c #576332",
"9  c #5A6730",
"0  c #5F6B32",
"q  c #67712E",
"w  c #626632",
"e  c #616D33",
"r  c #647234",
"t  c #667C33",
"y  c #6B7E34",
"u  c #6F7D3A",
"i  c #707D3B",
"p  c #525743",
"a  c #6E795C",
"s  c #803825",
"d  c #9B3A28",
"f  c #B43C2B",
"g  c #6E8136",
"h  c #718637",
"j  c #74823C",
"k  c #778B39",
"l  c #7A883F",
"z  c #7E933D",
"x  c #768741",
"c  c #7E8C41",
"v  c #80963E",
"b  c #839B3E",
"n  c #87A03D",
"m  c #8AA33E",
"M  c #ACAE33",
"N  c #AEB931",
"B  c #E98B33",
"V  c #808F42",
"C  c #829740",
"Z  c #869E41",
"A  c #889F41",
"S  c #8BA442",
"D  c #8FA944",
"F  c #92AC45",
"G  c #95B146",
"H  c #98B447",
"J  c #9BB64A",
"K  c #9DBA4B",
"L  c #9BA554",
"P  c #A1BE4C",
"I  c #9B8966",
"U  c #80877C",
"Y  c #99A869",
"T  c #AAAB62",
"R  c #A0B560",
"E  c #ACB063",
"W  c #A4B76F",
"Q  c #B2B566",
"!  c #B7BE66",
"~  c #BCAF74",
"^  c #A7B77A",
"/  c #BFB376",
"(  c #C7B97B",
")  c #A4C14E",
"_  c #F8F642",
"`  c #CAC677",
"'  c #657982",
"]  c #726A95",
"[  c #89A4BD",
"{  c #B4B6AE",
"}  c #B5B8B1",
"|  c #CEBB82",
" . c #B6C58E",
".. c #D3C383",
"X. c #D9CB86",
"o. c #DEC98C",
"O. c #E4C396",
"+. c #ECC59D",
"@. c #D6DFBD",
"#. c #FED9AA",
"$. c #D8E2BE",
"%. c #9D8CDC",
"&. c #C4C5C1",
"*. c #DCDDD7",
"=. c #DEDFDB",
"-. c #DAE2C2",
";. c #E9E9EB",
":. c #F6F5F6",
/* pixels */
"V V V V V V V V V V V V V V V V V V V V V V V V V V V V V V C V ",
"V V V V V V V V V V V V V V V V V V V V V V V V V V V V V V V V ",
"V V V V V V V V V V V V V V V V V V V V V V V V V V V V V V V V ",
"V V V V V V V V V V V V V V V V V V V V V V V V V V V V V V V V ",
"V V V 8 V V V V V V V V V V V V V V C c V V V V V V V V V V V V ",
"V V 8 N 8 V c c 6 2 2 2 2 2 w C V V [ c V %.V V V V V V V V V V ",
"V V V V c c j 8 . : 4 3 3 4 4 w w ' M ' ] M ] e c V V V V V V V ",
"V V V c C c w @   t S A Z A y : : : : ; : > ; 1 u c V V V V V V ",
"V V V V c 4 * d @ t S S S n S D D D D D D D D z > r V V V V V V ",
"V V V V c 1 * f $ t m b S n m H P ) K G G G K G : w V V V V V V ",
"V V V V c 1 % s X t R ^ x Y W S K c z G D D S g - 0 c V V V V V ",
"V V V V c 4 .   @ q  .*.p { @.D J t r K P P z ; o e C c V V V V ",
"V V V V V c 8 O d & U =.p } $.S J G G K P P J c ; e V V V V V V ",
"V V V V c c 0 + f # U :.&.;.@.D K ) ) ) P P ) D ; w V 8 V V V V ",
"V V V V V c 0 O = + a @.-.-. .D K ) K ) ) ) ) G > 0 8 N 8 V V V ",
"V V V V V c r - -   4 S F S S S J K H F D D G c ; e 8 V V V V V ",
"V V V V V V c j j > 6 b b S A S D K z ; > > ; ; o 0 V V V V V V ",
"V V V V V c c V l i 9 7 b T ( ....X.| I - 2 0 0 0 x V V V V V V ",
"V V V V V V V c t e , o v ( +.#.#.#.#.O.5 0 V c c V V V V V V V ",
"V V V V V V V j - - ; < C ~ +.#.#.#.#.o.5 0 V c V V V V V V V V ",
"V V V V V V V i - y F D S ~ +.#.#.#.#.O.5 7 c C V V V V V V V V ",
"V V V V V V V j X 3 k G S L Q ` O.+.o.E > 0 C c V V V V V V V V ",
"V V V V V V C x 4   : g Z S H ) / ( ! S ; 0 c C V V V V V V V V ",
"V V V V V V c c c 4   ; v K H F F J ) D ; e c c V V V V V V V V ",
"V V V V V V V V V l 4 ; z J z : : h H S : w V V V V V V V V V V ",
"V V V V B V V V V V e : v y 7 6 . y z 9 e i V 8 V V V V V V V V ",
"V V V B _ B V V V V 0 - e 6 w j - 6 7 4 c V 8 N 8 8 V V V V V V ",
"V V V 8 B V V V V V e o - r c j : . 8 c V V V V 8 N 8 V V V V V ",
"V V 8 8 V V V V V V c j i c V V j j x V V V V V V V V V V V V V ",
"V V V 8 V V V V V V V V V V V V C V V V V V V V V V V V V V V V ",
"V V V V V V V V V V V V V V V V V V V V V V V V V V V V V V V V ",
"V V V V V V V V V V V V V V V V V V V V V V V V V V V V V V V V "
};
