/* XPM */
static char *result[] = {
/* columns rows colors chars-per-pixel */
"32 32 120 2 ",
"   c #363D1F",
".  c #3C3B1F",
"X  c #42351E",
"o  c #443A1F",
"O  c #6F381E",
"+  c #463D21",
"@  c #503720",
"#  c #593721",
"$  c #6B3E24",
"%  c #3C4521",
"&  c #3F4922",
"*  c #424B24",
"=  c #475126",
"-  c #495427",
";  c #4C5827",
":  c #4C552A",
">  c #4E5A2A",
",  c #525E2B",
"<  c #4A573E",
"1  c #555E33",
"2  c #5C5C39",
"3  c #664124",
"4  c #655423",
"5  c #66592D",
"6  c #615D3E",
"7  c #55622D",
"8  c #59652E",
"9  c #5C6C2D",
"0  c #5E702B",
"q  c #576332",
"w  c #5B6731",
"e  c #5D6B32",
"r  c #60722F",
"t  c #636F34",
"y  c #647234",
"u  c #697637",
"i  c #697B34",
"p  c #6A7738",
"a  c #6D7A38",
"s  c #717E3A",
"d  c #4E5344",
"f  c #626654",
"g  c #697150",
"h  c #717659",
"j  c #9C3A28",
"k  c #A03B28",
"l  c #6F8137",
"z  c #74843C",
"x  c #78863E",
"c  c #758939",
"v  c #798C3C",
"b  c #7C923C",
"n  c #7D8B41",
"m  c #81973E",
"M  c #839B3E",
"N  c #88A13F",
"B  c #AEB931",
"V  c #E98B33",
"C  c #C1C237",
"Z  c #808F42",
"A  c #809346",
"S  c #869D40",
"D  c #87A140",
"F  c #8AA242",
"G  c #8EA843",
"H  c #92AC45",
"J  c #93A44B",
"K  c #93AB4A",
"L  c #96B147",
"P  c #9AB847",
"I  c #97B148",
"U  c #9AB649",
"Y  c #9EBA4B",
"T  c #95AC53",
"R  c #91A359",
"E  c #96A85F",
"W  c #98AD5A",
"Q  c #A1BE4D",
"!  c #A2AD59",
"~  c #A1B054",
"^  c #B0BF5E",
"/  c #9EB265",
"(  c #98A178",
")  c #ABAA63",
"_  c #B6AD6E",
"`  c #A1B568",
"'  c #B5BD63",
"]  c #A9BB77",
"[  c #A5C34E",
"{  c #B6C263",
"}  c #F8F642",
"|  c #7E73A9",
" . c #6F8593",
".. c #A1A78F",
"X. c #89A4BD",
"o. c #A7A9A1",
"O. c #ACAEA7",
"+. c #CEBB82",
"@. c #D4BE87",
"#. c #DDBF91",
"$. c #B1C183",
"%. c #D8C28A",
"&. c #E4C297",
"*. c #E6CF93",
"=. c #E6C49A",
"-. c #E9C69B",
";. c #EAD196",
":. c #EED499",
">. c #C7D2A8",
",. c #CED4BA",
"<. c #F4D2A2",
"1. c #FCD5A7",
"2. c #FCD6A9",
"3. c #FFDAAB",
"4. c #9D8CDC",
"5. c #D6DDC2",
"6. c #D3D4D4",
"7. c #DAE1C5",
"8. c #DEE1D6",
"9. c #E7E8E4",
/* pixels */
"Z Z Z Z Z Z Z Z Z Z Z Z Z Z Z Z Z Z Z Z Z Z Z Z Z Z Z Z Z Z Z Z ",
"Z Z Z Z Z Z Z Z Z Z Z Z Z Z Z Z Z Z Z Z Z Z Z Z Z Z Z Z Z Z Z Z ",
"Z Z Z Z Z Z Z Z Z Z Z Z Z Z Z Z Z Z Z Z Z Z Z Z Z Z Z Z Z Z Z Z ",
"Z Z Z Z Z Z Z Z Z Z Z Z Z Z Z Z Z Z Z Z Z Z Z Z Z Z Z Z Z Z Z Z ",
"Z Z Z q Z Z Z Z Z Z Z Z m A n n Z Z Z Z Z Z Z Z Z Z Z Z Z Z Z Z ",
"Z Z q B q Z Z Z Z Z Z Z Z A A n Z Z X.Z Z 4.Z Z Z Z Z Z Z Z Z Z ",
"Z Z Z Z Z Z Z n s p u u u u u u u  .C  .| C | p v Z Z Z Z Z Z Z ",
"Z Z Z Z Z A n z : * * = = = - - - - < * - d - : s Z Z Z Z Z Z Z ",
"Z Z Z Z n A s :   > i i i i l c b v v v v v v c , u n Z Z Z Z Z ",
"Z Z Z Z n a 5 3 X y M M D D N L U Q P H H H U H : w n Z Z Z Z Z ",
"Z Z Z Z Z 7 $ k o y K ` n R / K P H D H H H H v * 8 x Z Z Z Z Z ",
"Z Z Z Z Z , # j @ 0 ] ,.g ..>.K P z i I P Y M ,   t n Z Z Z Z Z ",
"Z Z Z Z Z , + # X 9 $.8.f o.7.T U D D Y Q Q I c * w v Z Z Z Z Z ",
"Z Z Z Z Z u = . O 4 ( 9.O.6.7.T U P Y Q Q Q Q H - w Z q Z Z Z Z ",
"Z Z Z Z Z n e + j O h ,.5.8.>.T U Q Q Q Q Q [ H - 8 1 B q Z Z Z ",
"Z Z Z Z Z Z y + j O 1 E / / W G U Q Y I I I U F - w 1 Z Z Z Z Z ",
"Z Z Z Z Z Z y o # X ; m F F N N G U D e , 8 8 , % w x Z Z Z Z Z ",
"Z Z Z Z Z Z s , , % * r m F N H H P G y * = , , , p Z Z Z Z Z Z ",
"Z Z Z Z Z Z Z x z w * * v J ! ' { { { ~ : , s s x Z Z Z Z Z Z Z ",
"Z Z Z Z Z Z Z Z v s , & c ) @.;.:.:.:.%.6 w Z Z Z Z Z Z Z Z Z Z ",
"Z Z Z Z Z Z Z x 1 - * % c _ &.1.3.3.3.-.f 7 n Z Z Z Z Z Z Z Z Z ",
"Z Z Z Z Z Z Z x = , r u m _ =.2.3.3.3.-.6 8 x Z Z Z Z Z Z Z Z Z ",
"Z Z Z Z Z Z Z z * 8 M G F ) +.*.<.<.<.%.2 8 v Z Z Z Z Z Z Z Z Z ",
"Z Z Z Z Z Z Z x * * 8 M D J ~ ' @.#.{ _ ; 8 m Z Z Z Z Z Z Z Z Z ",
"Z Z Z Z Z Z Z n p = . , v H U Q ^ ' ^ I - w v Z Z Z Z Z Z Z Z Z ",
"Z Z Z A V Z Z Z Z t = * v U H l a S Q H - w Z q Z Z Z Z Z Z Z Z ",
"Z Z Z V } V Z Z Z x t * r b c , % 8 v v , t q B q q Z Z Z Z Z Z ",
"Z Z Z q V Z Z Z Z Z t * * ; 8 y * & = > u n Z Z q B q Z Z Z Z Z ",
"Z Z q q Z Z Z Z Z Z s t t t s x p t t u x Z Z Z Z Z Z Z Z Z Z Z ",
"Z Z Z q Z Z Z Z Z Z Z Z n Z v Z v Z n n Z Z Z Z Z Z Z Z Z Z Z Z ",
"Z Z Z Z Z Z Z Z Z Z Z Z Z Z Z Z Z Z Z Z Z Z Z Z Z Z Z Z Z Z Z Z ",
"Z Z Z Z Z Z Z Z Z Z Z Z Z Z Z Z Z Z Z Z Z Z Z Z Z Z Z Z Z Z Z Z "
};
