<svg width="20" height="20" viewBox="0 0 20 20" fill="none" xmlns="http://www.w3.org/2000/svg">
<path fill-rule="evenodd" clip-rule="evenodd" d="M5.89935 2C6.31356 2 6.64935 2.33579 6.64935 2.75V3.25391H9.25V2.75C9.25 2.33579 9.58579 2 10 2C10.4142 2 10.75 2.33579 10.75 2.75V3.25391H13.25V2.75C13.25 2.33579 13.5858 2 14 2C14.4142 2 14.75 2.33579 14.75 2.75V3.25391H15.25C16.7688 3.25391 18 4.48512 18 6.00391V9.09766C18 9.51187 17.6642 9.84766 17.25 9.84766C16.8358 9.84766 16.5 9.51187 16.5 9.09766V6.00391C16.5 5.31355 15.9404 4.75391 15.25 4.75391H14.75V5.2514C14.75 5.66561 14.4142 6.0014 14 6.0014C13.5858 6.0014 13.25 5.66561 13.25 5.2514V4.75391H10.75V5.2514C10.75 5.66561 10.4142 6.0014 10 6.0014C9.58579 6.0014 9.25 5.66561 9.25 5.2514V4.75391H6.64935V5.2514C6.64935 5.66561 6.31356 6.0014 5.89935 6.0014C5.48513 6.0014 5.14935 5.66561 5.14935 5.2514V4.75391H4.75C4.05964 4.75391 3.5 5.31355 3.5 6.00391V15.2539C3.5 15.9443 4.05964 16.5039 4.75 16.5039H9.09375C9.50796 16.5039 9.84375 16.8397 9.84375 17.2539C9.84375 17.6681 9.50796 18.0039 9.09375 18.0039H4.75C3.23122 18.0039 2 16.7727 2 15.2539V6.00391C2 4.48512 3.23122 3.25391 4.75 3.25391H5.14935V2.75C5.14935 2.33579 5.48513 2 5.89935 2ZM6.62 8.5539C6.62 8.9405 6.3066 9.2539 5.92 9.2539C5.5334 9.2539 5.22 8.9405 5.22 8.5539C5.22 8.16731 5.5334 7.8539 5.92 7.8539C6.3066 7.8539 6.62 8.16731 6.62 8.5539ZM8.62 9.2539C9.0066 9.2539 9.32 8.9405 9.32 8.5539C9.32 8.16731 9.0066 7.8539 8.62 7.8539C8.2334 7.8539 7.92 8.16731 7.92 8.5539C7.92 8.9405 8.2334 9.2539 8.62 9.2539ZM6.62 11.2839C6.62 11.6705 6.3066 11.9839 5.92 11.9839C5.5334 11.9839 5.22 11.6705 5.22 11.2839C5.22 10.8973 5.5334 10.5839 5.92 10.5839C6.3066 10.5839 6.62 10.8973 6.62 11.2839ZM8.62 11.9839C9.0066 11.9839 9.32 11.6705 9.32 11.2839C9.32 10.8973 9.0066 10.5839 8.62 10.5839C8.2334 10.5839 7.92 10.8973 7.92 11.2839C7.92 11.6705 8.2334 11.9839 8.62 11.9839ZM6.62 13.9939C6.62 14.3805 6.3066 14.6939 5.92 14.6939C5.5334 14.6939 5.22 14.3805 5.22 13.9939C5.22 13.6073 5.5334 13.2939 5.92 13.2939C6.3066 13.2939 6.62 13.6073 6.62 13.9939ZM8.62 14.6939C9.0066 14.6939 9.32 14.3805 9.32 13.9939C9.32 13.6073 9.0066 13.2939 8.62 13.2939C8.2334 13.2939 7.92 13.6073 7.92 13.9939C7.92 14.3805 8.2334 14.6939 8.62 14.6939ZM12.05 8.5539C12.05 8.9405 11.7366 9.2539 11.35 9.2539C10.9634 9.2539 10.65 8.9405 10.65 8.5539C10.65 8.16731 10.9634 7.8539 11.35 7.8539C11.7366 7.8539 12.05 8.16731 12.05 8.5539ZM14.05 9.2539C14.4366 9.2539 14.75 8.9405 14.75 8.5539C14.75 8.16731 14.4366 7.8539 14.05 7.8539C13.6634 7.8539 13.35 8.16731 13.35 8.5539C13.35 8.9405 13.6634 9.2539 14.05 9.2539Z" fill="#8A9099"/>
<path fill-rule="evenodd" clip-rule="evenodd" d="M16.5 14.0039C16.5 15.3846 15.3807 16.5039 14 16.5039C12.6193 16.5039 11.5 15.3846 11.5 14.0039C11.5 12.6232 12.6193 11.5039 14 11.5039C15.3807 11.5039 16.5 12.6232 16.5 14.0039ZM18 14.0039C18 16.213 16.2091 18.0039 14 18.0039C11.7909 18.0039 10 16.213 10 14.0039C10 11.7948 11.7909 10.0039 14 10.0039C16.2091 10.0039 18 11.7948 18 14.0039ZM14.2 13.0039C14.2 12.7278 13.9761 12.5039 13.7 12.5039C13.4239 12.5039 13.2 12.7278 13.2 13.0039V14.5039C13.2 14.78 13.4239 15.0039 13.7 15.0039H14.9C15.1761 15.0039 15.4 14.78 15.4 14.5039C15.4 14.2278 15.1761 14.0039 14.9 14.0039H14.2V13.0039Z" fill="#8A9099"/>
</svg>
