<svg width="20" height="20" viewBox="0 0 20 20" fill="none" xmlns="http://www.w3.org/2000/svg">
<path d="M15.3928 3.60346L15.3915 3.60225C14.199 2.43328 12.5916 1.78521 10.9219 1.80026C9.25246 1.8153 7.65718 2.49202 6.48598 3.68194C4.44844 5.72013 3.99243 8.59402 5.29823 10.9753L1.98513 14.2898C1.92644 14.3485 1.87988 14.4181 1.84811 14.4948C1.81635 14.5714 1.8 14.6536 1.8 14.7366C1.8 14.8195 1.81635 14.9017 1.84811 14.9784C1.87988 15.055 1.92644 15.1247 1.98513 15.1833L3.81628 17.0149C3.81629 17.0149 3.81631 17.0149 3.81633 17.0149C3.87496 17.0736 3.94457 17.1201 4.0212 17.1519C4.09784 17.1836 4.18 17.2 4.26297 17.2C4.34593 17.2 4.42809 17.1836 4.50473 17.1519C4.58138 17.1201 4.65101 17.0735 4.70965 17.0149L8.02379 13.7009C10.4061 15.0029 13.2803 14.5477 15.3159 12.5128C16.5074 11.331 17.1843 9.72653 17.1993 8.04826C17.2114 7.22421 17.0577 6.40614 16.7474 5.64266C16.4371 4.87899 15.9764 4.18552 15.3928 3.60346ZM8.27284 12.3767L8.27214 12.3763C8.15059 12.2973 8.0057 12.2624 7.86153 12.2771C7.71736 12.2919 7.58259 12.3556 7.47957 12.4575L7.47881 12.4582L4.26292 15.6748L3.32482 14.7366L6.54084 11.5191L6.5409 11.5191C6.64373 11.4161 6.70786 11.2808 6.72248 11.1361C6.73707 10.9915 6.70138 10.8463 6.62142 10.7249C6.36694 10.3372 6.17217 9.91481 6.0425 9.47202L9.52444 12.9545C9.08222 12.825 8.6603 12.6306 8.27284 12.3767ZM14.4235 11.6186L14.4234 11.6186L14.4209 11.6211C13.6312 12.4329 12.5955 12.9594 11.4763 13.12L5.87776 7.52044C6.03934 6.40146 6.56626 5.36619 7.37787 4.57668L7.37791 4.57671L7.38115 4.57342C8.31629 3.62069 9.59103 3.07779 10.9258 3.06378C12.2602 3.04977 13.5457 3.56551 14.5006 4.49793C14.9643 4.96106 15.3304 5.51264 15.5769 6.11994C15.8237 6.72759 15.9458 7.37864 15.936 8.03442L15.936 8.03553C15.9235 9.38253 15.3799 10.6702 14.4235 11.6186Z" fill="white" stroke="white" stroke-width="0.4"/>
</svg>
