<svg width="20" height="20" viewBox="0 0 20 20" fill="none" xmlns="http://www.w3.org/2000/svg">
<path fill-rule="evenodd" clip-rule="evenodd" d="M3.75225 5.75225C3.91376 5.59074 4.13281 5.5 4.36122 5.5H15.6398C15.8682 5.5 16.0872 5.59074 16.2488 5.75225C16.4103 5.91376 16.501 6.13281 16.501 6.36122V14.4173C16.501 14.6457 16.4103 14.8648 16.2488 15.0263C16.0872 15.1878 15.8682 15.2786 15.6398 15.2786H5.97245C5.77353 15.2786 5.58277 15.3576 5.44212 15.4982L3.5 17.4403V6.36122C3.5 6.13281 3.59074 5.91376 3.75225 5.75225ZM4.36122 4C3.73499 4 3.1344 4.24877 2.69159 4.69159C2.24877 5.1344 2 5.73499 2 6.36122V19.251C2 19.5544 2.18273 19.8278 2.46299 19.9439C2.74324 20.06 3.06583 19.9958 3.28033 19.7813L6.28311 16.7786H15.6398C16.266 16.7786 16.8666 16.5298 17.3094 16.087C17.7522 15.6442 18.001 15.0436 18.001 14.4173V6.36122C18.001 5.73499 17.7522 5.1344 17.3094 4.69159C16.8666 4.24877 16.266 4 15.6398 4H4.36122ZM5.74266 8C5.32845 8 4.99266 8.33579 4.99266 8.75C4.99266 9.16421 5.32845 9.5 5.74266 9.5H14.25C14.6642 9.5 15 9.16421 15 8.75C15 8.33579 14.6642 8 14.25 8H5.74266ZM5.75 11.0005C5.33579 11.0005 5 11.3363 5 11.7505C5 12.1647 5.33579 12.5005 5.75 12.5005H11.2531C11.6673 12.5005 12.0031 12.1647 12.0031 11.7505C12.0031 11.3363 11.6673 11.0005 11.2531 11.0005L5.75 11.0005Z" fill="#8A9099"/>
</svg>
