<svg width="20" height="20" viewBox="0 0 20 20" fill="none" xmlns="http://www.w3.org/2000/svg">
<path fill-rule="evenodd" clip-rule="evenodd" d="M9.66459 2.07918C9.87574 1.97361 10.1243 1.97361 10.3354 2.07918L17.5854 5.70418C17.8395 5.83122 18 6.09092 18 6.375C18 6.65908 17.8395 6.91878 17.5854 7.04582L10.3354 10.6708C10.1243 10.7764 9.87574 10.7764 9.66459 10.6708L2.41459 7.04582C2.1605 6.91878 2 6.65908 2 6.375C2 6.09092 2.1605 5.83122 2.41459 5.70418L9.66459 2.07918ZM4.42705 6.375L10 9.16147L15.5729 6.375L10 3.58853L4.42705 6.375ZM2.07934 13.2898C2.26459 12.9193 2.71509 12.7691 3.08557 12.9543L10.0002 16.4116L16.9148 12.9543C17.2852 12.7691 17.7357 12.9193 17.921 13.2898C18.1062 13.6602 17.9561 14.1107 17.5856 14.296L10.3356 17.921C10.1244 18.0266 9.8759 18.0266 9.66475 17.921L2.41475 14.296C2.04427 14.1107 1.8941 13.6602 2.07934 13.2898ZM3.08557 9.32934C2.71509 9.1441 2.26459 9.29427 2.07934 9.66475C1.8941 10.0352 2.04427 10.4857 2.41475 10.671L9.66475 14.296C9.8759 14.4016 10.1244 14.4016 10.3356 14.296L17.5856 10.671C17.9561 10.4857 18.1062 10.0352 17.921 9.66475C17.7357 9.29427 17.2852 9.1441 16.9148 9.32934L10.0002 12.7866L3.08557 9.32934Z" fill="#8A9099"/>
</svg>
