<svg width="20" height="20" viewBox="0 0 20 20" fill="none" xmlns="http://www.w3.org/2000/svg">
<path fill-rule="evenodd" clip-rule="evenodd" d="M12.2692 5.73333C12.2692 6.95327 11.2668 7.96667 10 7.96667C8.73318 7.96667 7.73077 6.95327 7.73077 5.73333C7.73077 4.5134 8.73318 3.5 10 3.5C11.2668 3.5 12.2692 4.5134 12.2692 5.73333ZM13.7692 5.73333C13.7692 7.7952 12.0817 9.46667 10 9.46667C7.91832 9.46667 6.23077 7.7952 6.23077 5.73333C6.23077 3.67147 7.91832 2 10 2C12.0817 2 13.7692 3.67147 13.7692 5.73333ZM8.46342 12.0333H11.5366C13.6689 12.0333 15.5 13.851 15.5 16.2222C15.5 16.3188 15.4636 16.3929 15.4181 16.4403C15.3735 16.4867 15.33 16.5 15.2927 16.5H4.70732C4.67003 16.5 4.62647 16.4867 4.58194 16.4403C4.5364 16.3929 4.5 16.3188 4.5 16.2222C4.5 13.851 6.33108 12.0333 8.46342 12.0333ZM3 16.2222C3 13.0803 5.44606 10.5333 8.46342 10.5333H11.5366C14.5539 10.5333 17 13.0803 17 16.2222C17 17.2041 16.2356 18 15.2927 18H4.70732C3.76439 18 3 17.2041 3 16.2222Z" fill="#8A9099"/>
</svg>
