<svg width="30" height="30" viewBox="0 0 30 30" fill="none" xmlns="http://www.w3.org/2000/svg">
<mask id="mask0_210_7606" style="mask-type:alpha" maskUnits="userSpaceOnUse" x="0" y="0" width="30" height="30">
<rect width="30" height="30" rx="10" fill="#C4C4C4"/>
</mask>
<g mask="url(#mask0_210_7606)">
<rect width="30" height="30" fill="#04809F"/>
</g>
<path fill-rule="evenodd" clip-rule="evenodd" d="M18.6872 19.609C18.9417 19.8636 19.3544 19.8636 19.609 19.609C19.8636 19.3545 19.8636 18.9417 19.609 18.6872L15.9218 14.9999L19.609 11.3127C19.8636 11.0581 19.8636 10.6454 19.609 10.3909C19.3544 10.1363 18.9417 10.1363 18.6872 10.3909L14.9999 14.0781L11.3127 10.3909C11.0581 10.1363 10.6454 10.1363 10.3909 10.3909C10.1363 10.6454 10.1363 11.0581 10.3909 11.3127L14.0781 14.9999L10.3909 18.6872C10.1363 18.9417 10.1363 19.3544 10.3909 19.609C10.6454 19.8636 11.0581 19.8636 11.3127 19.609L14.9999 15.9218L18.6872 19.609Z" fill="white"/>
</svg>
