<svg width="39" height="39" viewBox="0 0 39 39" fill="none" xmlns="http://www.w3.org/2000/svg">
<mask id="mask0_578_15934" style="mask-type:alpha" maskUnits="userSpaceOnUse" x="0" y="0" width="39" height="39">
<rect x="0.5" y="0.5" width="38" height="38" rx="19" stroke="black"/>
</mask>
<g mask="url(#mask0_578_15934)">
<rect width="39" height="39" fill="#E8E9EB"/>
</g>
<g clip-path="url(#clip0_578_15934)">
<path d="M18.5998 10.8V14.4C18.5978 14.5443 18.6736 14.6785 18.7982 14.7512C18.9228 14.8239 19.0769 14.8239 19.2015 14.7512C19.3261 14.6785 19.4018 14.5443 19.3998 14.4V11.6399C23.8537 11.8526 27.3998 15.4932 27.3998 20C27.3998 24.6443 23.6441 28.4 18.9998 28.4C14.3555 28.4 10.5998 24.6443 10.5998 20C10.5998 17.7844 11.4555 15.7737 12.8545 14.2727C12.9559 14.1689 12.9932 14.0182 12.9518 13.8791C12.9104 13.7399 12.7968 13.6342 12.6551 13.6027C12.5134 13.5712 12.3658 13.6189 12.2693 13.7274C10.738 15.3704 9.7998 17.5781 9.7998 20C9.7998 25.0766 13.9233 29.2 18.9998 29.2C24.0764 29.2 28.1998 25.0766 28.1998 20C28.1998 14.9239 24.0764 10.8 18.9998 10.8H18.5998ZM14.5998 15.6C14.5998 15.6 17.6826 20.3797 18.1514 20.8485C18.6202 21.3173 19.3798 21.3169 19.8482 20.8485C20.317 20.3801 20.317 19.6204 19.8482 19.1516C19.3794 18.6828 14.5998 15.6 14.5998 15.6Z" fill="#04809F"/>
</g>
<mask id="mask1_578_15934" style="mask-type:alpha" maskUnits="userSpaceOnUse" x="0" y="0" width="39" height="39">
<rect width="39" height="39" rx="19.5" fill="#C4C4C4"/>
</mask>
<g mask="url(#mask1_578_15934)">
</g>
<defs>
<clipPath id="clip0_578_15934">
<rect width="20" height="20" fill="white" transform="translate(9 10)"/>
</clipPath>
</defs>
</svg>
