<svg width="39" height="39" viewBox="0 0 39 39" fill="none" xmlns="http://www.w3.org/2000/svg">
<mask id="mask0_578_16339" style="mask-type:alpha" maskUnits="userSpaceOnUse" x="0" y="0" width="39" height="39">
<rect x="0.5" y="0.5" width="38" height="38" rx="19" stroke="black"/>
</mask>
<g mask="url(#mask0_578_16339)">
<rect width="39" height="39" fill="#E8E9EB"/>
</g>
<path d="M17.5592 11.2C17.4106 11.2001 17.2744 11.2825 17.2053 11.414L9.84591 25.414C9.84539 25.4151 9.84486 25.4161 9.84435 25.4171C9.84073 25.4246 9.83734 25.4321 9.83419 25.4398C9.83257 25.4434 9.83101 25.4471 9.8295 25.4507C9.82871 25.4523 9.82793 25.4539 9.82716 25.4554C9.82304 25.4662 9.81939 25.4771 9.81622 25.4882C9.81384 25.497 9.81175 25.5059 9.80997 25.5148C9.80857 25.52 9.80727 25.5252 9.80607 25.5304V25.532C9.80401 25.5434 9.80244 25.5548 9.80138 25.5664C9.80032 25.5783 9.7998 25.5903 9.79981 25.6023C9.7998 25.6041 9.7998 25.6059 9.79981 25.6078C9.79981 25.6091 9.79981 25.6104 9.79981 25.6117C9.80034 25.6234 9.80138 25.6352 9.80294 25.6468C9.80396 25.6555 9.80526 25.6641 9.80685 25.6726C9.808 25.6789 9.8093 25.6851 9.81075 25.6914C9.81341 25.7024 9.81654 25.7134 9.82013 25.7242C9.82278 25.7315 9.82565 25.7388 9.82872 25.746C9.83044 25.7513 9.83226 25.7565 9.83419 25.7617C9.83496 25.7632 9.83574 25.7648 9.83653 25.7664C9.84129 25.777 9.8465 25.7874 9.85216 25.7976C9.86533 25.8207 9.88077 25.8424 9.89825 25.8625C9.89928 25.8638 9.90033 25.8651 9.90137 25.8664C9.90691 25.8725 9.91265 25.8785 9.91856 25.8843L9.92637 25.8914L12.7186 28.6515C12.7934 28.7256 12.8945 28.7671 12.9998 28.7671H26.342C26.3467 28.767 26.3514 28.7667 26.3561 28.7664H26.3576C26.36 28.7661 26.3623 28.7659 26.3647 28.7656C26.3704 28.7654 26.3761 28.7652 26.3818 28.7648C26.3837 28.7646 26.3855 28.7643 26.3873 28.764C26.3938 28.7634 26.4004 28.7626 26.4069 28.7617C26.4168 28.76 26.4267 28.7579 26.4365 28.7554H26.4373C26.4761 28.7459 26.5132 28.7306 26.5475 28.7101C26.5488 28.7093 26.5501 28.7086 26.5514 28.7078C26.5613 28.7017 26.5709 28.6952 26.5803 28.6882L26.5811 28.6875C26.5916 28.6796 26.6018 28.6713 26.6115 28.6625C26.6174 28.6572 26.6232 28.6517 26.6287 28.6461C26.6325 28.6422 26.6361 28.6383 26.6397 28.6343C26.6451 28.6282 26.6503 28.622 26.6553 28.6156C26.6585 28.6115 26.6616 28.6073 26.6647 28.6031C26.6652 28.602 26.6657 28.601 26.6662 28.6C26.6735 28.5901 26.6802 28.58 26.6865 28.5695C26.6907 28.5626 26.6946 28.5555 26.6983 28.5484C26.6993 28.5463 26.7004 28.5442 26.7014 28.5422C26.7041 28.5362 26.7067 28.5302 26.7092 28.5242C26.7132 28.5152 26.7168 28.5061 26.7201 28.4968C26.7221 28.4914 26.7239 28.4859 26.7256 28.4804L26.7279 28.4742C26.7285 28.4721 26.729 28.47 26.7295 28.4679L27.7834 24.914C27.8127 24.8151 27.8026 24.7088 27.7553 24.6172L20.9592 11.4257L20.9553 11.4172C20.953 11.4132 20.9507 11.4093 20.9483 11.4054C20.9441 11.3977 20.9396 11.3902 20.935 11.3828C20.9277 11.3715 20.9199 11.3605 20.9115 11.35C20.9032 11.3396 20.8943 11.3297 20.885 11.3203C20.878 11.313 20.8707 11.3059 20.8631 11.2992C20.8608 11.2971 20.8584 11.295 20.8561 11.2929C20.8482 11.2864 20.8402 11.2801 20.8319 11.2742C20.8293 11.2723 20.8267 11.2705 20.824 11.2687C20.822 11.2674 20.8199 11.2661 20.8178 11.2648C20.8086 11.259 20.7993 11.2535 20.7897 11.2484C20.778 11.2421 20.766 11.2363 20.7537 11.2312C20.7442 11.2272 20.7346 11.2236 20.7248 11.2203H20.724C20.7166 11.218 20.709 11.2159 20.7014 11.214C20.6936 11.2117 20.6858 11.2096 20.6779 11.2078H20.6772C20.6671 11.2058 20.6569 11.2043 20.6467 11.2031C20.6363 11.2019 20.6259 11.2011 20.6154 11.2008C20.6102 11.2004 20.605 11.2001 20.5998 11.2H20.5975L17.5592 11.2ZM17.8014 12H19.9639L15.0397 22.2265C14.9801 22.3504 14.9883 22.4962 15.0614 22.6127C15.1345 22.7291 15.2623 22.7998 15.3998 22.8H18.7779L20.2779 25.2H10.8615L17.8014 12ZM20.6115 12.4968L26.9709 24.8398L26.2279 27.3437L21.174 18.3046C21.1007 18.174 20.9605 18.0953 20.8107 18.1007C20.661 18.1061 20.5268 18.1948 20.4631 18.3304L20.4569 18.3429C20.4497 18.3551 20.4432 18.3676 20.4373 18.3804L18.7451 22H16.0358L20.6115 12.4968ZM20.8342 19.425L25.6568 27.9671H13.1639L11.1733 26H11.3998H20.9998C21.0131 25.9998 21.0264 25.9991 21.0397 25.9976C21.177 25.9837 21.2975 25.8999 21.3583 25.7759C21.4192 25.652 21.4118 25.5055 21.3389 25.3882L19.4545 22.3726L19.4873 22.3031L20.8342 19.425Z" fill="#04809F"/>
<mask id="mask1_578_16339" style="mask-type:alpha" maskUnits="userSpaceOnUse" x="0" y="0" width="39" height="39">
<rect width="39" height="39" rx="19.5" fill="#C4C4C4"/>
</mask>
<g mask="url(#mask1_578_16339)">
</g>
</svg>
