<svg width="80" height="80" viewBox="0 0 80 80" fill="none" xmlns="http://www.w3.org/2000/svg">
<mask id="mask0_210_6449" style="mask-type:alpha" maskUnits="userSpaceOnUse" x="0" y="0" width="80" height="80">
<circle cx="40" cy="40" r="40" fill="#C4C4C4"/>
</mask>
<g mask="url(#mask0_210_6449)">
<rect width="85.3333" height="85.3333" transform="matrix(1 0 0 -1 -2.6665 82.667)" fill="#F8F8F8"/>
</g>
<path fill-rule="evenodd" clip-rule="evenodd" d="M42.133 29.3335C42.133 28.1553 41.1779 27.2002 39.9997 27.2002C38.8215 27.2002 37.8664 28.1553 37.8664 29.3335V37.8669H29.333C28.1548 37.8669 27.1997 38.822 27.1997 40.0002C27.1997 41.1784 28.1548 42.1335 29.333 42.1335H37.8664V50.6669C37.8664 51.8451 38.8215 52.8002 39.9997 52.8002C41.1779 52.8002 42.133 51.8451 42.133 50.6669V42.1335H50.6664C51.8446 42.1335 52.7997 41.1784 52.7997 40.0002C52.7997 38.822 51.8446 37.8669 50.6664 37.8669H42.133V29.3335Z" fill="#3F434A"/>
</svg>
