<svg width="39" height="39" viewBox="0 0 39 39" fill="none" xmlns="http://www.w3.org/2000/svg">
<mask id="mask0_209_7185" style="mask-type:alpha" maskUnits="userSpaceOnUse" x="0" y="0" width="39" height="39">
<rect x="0.5" y="0.5" width="38" height="38" rx="19" stroke="black"/>
</mask>
<g mask="url(#mask0_209_7185)">
<rect width="39" height="39" fill="#E8E9EB"/>
</g>
<mask id="mask1_209_7185" style="mask-type:alpha" maskUnits="userSpaceOnUse" x="0" y="0" width="39" height="39">
<rect width="39" height="39" rx="19.5" fill="#C4C4C4"/>
</mask>
<g mask="url(#mask1_209_7185)">
<path d="M25.2515 13.7451C24.0969 12.6132 22.5404 11.9857 20.9237 12.0002C19.307 12.0148 17.7621 12.6703 16.628 13.8228C14.6112 15.8398 14.1972 18.686 15.5471 21.0092L12.1265 24.4313C12.0864 24.4714 12.0546 24.519 12.0329 24.5714C12.0112 24.6237 12 24.6799 12 24.7366C12 24.7933 12.0112 24.8494 12.0329 24.9018C12.0546 24.9542 12.0864 25.0018 12.1265 25.0418L13.9578 26.8735C13.9978 26.9136 14.0454 26.9454 14.0978 26.9671C14.1501 26.9888 14.2063 27 14.263 27C14.3197 27 14.3758 26.9888 14.4282 26.9671C14.4805 26.9454 14.5281 26.9136 14.5682 26.8735L17.9896 23.4522C20.3142 24.7981 23.1606 24.3849 25.1748 22.3711C26.3292 21.2263 26.9849 19.6718 26.9994 18.0459C27.0111 17.2485 26.8624 16.4568 26.5621 15.718C26.2619 14.9791 25.8162 14.3082 25.2515 13.7451ZM18.1632 22.544C18.0799 22.4899 17.9807 22.466 17.8819 22.4761C17.7832 22.4862 17.6908 22.5298 17.6202 22.5997L14.2629 25.9577L13.042 24.7366L16.3994 21.3777C16.4697 21.3074 16.5135 21.2149 16.5235 21.116C16.5335 21.017 16.509 20.9177 16.4542 20.8347C16.0614 20.2362 15.8051 19.5586 15.7033 18.8499L20.1465 23.2939C19.4386 23.192 18.7615 22.936 18.1632 22.544ZM24.5643 21.7606C23.7202 22.6281 22.6058 23.1821 21.4048 23.3314L15.6663 17.5918C15.8166 16.391 16.371 15.2771 17.2384 14.4333C18.2107 13.4428 19.536 12.8784 20.9237 12.8638C22.3114 12.8492 23.6483 13.3857 24.6411 14.3556C25.1242 14.8378 25.5054 15.4122 25.7622 16.0447C26.019 16.6772 26.1461 17.3548 26.136 18.0374C26.123 19.4371 25.5581 20.7751 24.5643 21.7606Z" fill="#04809F"/>
</g>
</svg>
