<svg width="39" height="39" viewBox="0 0 39 39" fill="none" xmlns="http://www.w3.org/2000/svg">
<path d="M11.0001 11.5996C10.7792 11.5996 10.6001 11.7787 10.6001 11.9996V23.1996C10.6001 23.3453 10.6427 23.4811 10.7126 23.5996C10.6427 23.7181 10.6001 23.8539 10.6001 23.9996V27.9996C10.6001 28.2205 10.7792 28.3996 11.0001 28.3996H27.0001C27.221 28.3996 27.4001 28.2205 27.4001 27.9996V23.9996C27.4001 23.8539 27.3575 23.7181 27.2876 23.5996C27.3575 23.4811 27.4001 23.3453 27.4001 23.1996V11.9996C27.4001 11.7787 27.221 11.5996 27.0001 11.5996H11.0001ZM11.4001 12.3996H26.6001V23.1996H11.4001V12.3996ZM13.0001 13.1996C12.5629 13.1996 12.2001 13.5624 12.2001 13.9996V21.1996C12.2001 21.6368 12.5629 21.9996 13.0001 21.9996H25.0001C25.4373 21.9996 25.8001 21.6368 25.8001 21.1996V13.9996C25.8001 13.5624 25.4373 13.1996 25.0001 13.1996H13.0001ZM13.0001 13.9996H25.0001V21.1996H13.0001V13.9996ZM11.4001 23.9996H26.6001V27.5996H11.4001V23.9996ZM24.2001 24.7996C23.7585 24.7996 23.4001 25.1576 23.4001 25.5996C23.4001 26.0416 23.7585 26.3996 24.2001 26.3996C24.6417 26.3996 25.0001 26.0416 25.0001 25.5996C25.0001 25.1576 24.6417 24.7996 24.2001 24.7996ZM13.0001 25.1996V25.9996H19.4001V25.1996H13.0001Z" fill="#04809F"/>
<mask id="mask0_791_12407" style="mask-type:alpha" maskUnits="userSpaceOnUse" x="0" y="0" width="39" height="39">
<rect x="0.5" y="0.5" width="38" height="38" rx="19" stroke="black"/>
</mask>
<g mask="url(#mask0_791_12407)">
<rect width="39" height="39" fill="#E8E9EB"/>
</g>
<mask id="mask1_791_12407" style="mask-type:alpha" maskUnits="userSpaceOnUse" x="0" y="0" width="39" height="39">
<rect width="39" height="39" rx="19.5" fill="#C4C4C4"/>
</mask>
<g mask="url(#mask1_791_12407)">
</g>
</svg>
