<svg width="80" height="80" viewBox="0 0 80 80" fill="none" xmlns="http://www.w3.org/2000/svg">
<mask id="mask0_431_10242" style="mask-type:alpha" maskUnits="userSpaceOnUse" x="0" y="0" width="80" height="80">
<circle cx="40" cy="40" r="40" fill="#C4C4C4"/>
</mask>
<g mask="url(#mask0_431_10242)">
<rect width="85.3333" height="85.3333" transform="matrix(1 0 0 -1 -2.66663 82.6667)" fill="#F8F8F8"/>
</g>
<path fill-rule="evenodd" clip-rule="evenodd" d="M26.225 40.2C26.225 32.4818 32.4818 26.225 40.2 26.225C47.9182 26.225 54.175 32.4818 54.175 40.2C54.175 47.9182 47.9182 54.175 40.2 54.175C32.4818 54.175 26.225 47.9182 26.225 40.2ZM40.2 23C30.7007 23 23 30.7007 23 40.2C23 49.6993 30.7007 57.4 40.2 57.4C49.6993 57.4 57.4 49.6993 57.4 40.2C57.4 30.7007 49.6993 23 40.2 23ZM41.8125 30.8477C41.8125 29.9572 41.0906 29.2352 40.2 29.2352C39.3094 29.2352 38.5875 29.9572 38.5875 30.8477V40.2003C38.5875 40.811 38.9326 41.3694 39.4789 41.6425L45.7139 44.76C46.5104 45.1583 47.479 44.8354 47.8773 44.0389C48.2755 43.2423 47.9527 42.2738 47.1561 41.8755L41.8125 39.2037V30.8477Z" fill="#3F434A"/>
</svg>
