<svg width="39" height="39" viewBox="0 0 39 39" fill="none" xmlns="http://www.w3.org/2000/svg">
<mask id="mask0_210_6461" style="mask-type:alpha" maskUnits="userSpaceOnUse" x="0" y="0" width="39" height="39">
<rect x="0.5" y="0.5" width="38" height="38" rx="19" stroke="black"/>
</mask>
<g mask="url(#mask0_210_6461)">
<rect width="39" height="39" fill="#E8E9EB"/>
</g>
<path d="M19.0001 13.0625L18.7126 13.3375L14.3626 17.7C14.2438 17.7969 14.1891 17.9516 14.2235 18.1016C14.2579 18.25 14.3751 18.3672 14.5235 18.4016C14.6735 18.4359 14.8282 18.3813 14.9251 18.2625L18.6001 14.5875V26.4C18.5985 26.5438 18.6735 26.6781 18.7985 26.7516C18.9235 26.8234 19.0766 26.8234 19.2016 26.7516C19.3266 26.6781 19.4016 26.5438 19.4001 26.4V14.5875L23.0751 18.2625C23.172 18.3813 23.3266 18.4359 23.4766 18.4016C23.6251 18.3672 23.7423 18.25 23.7766 18.1016C23.811 17.9516 23.7563 17.7969 23.6376 17.7L19.2876 13.3375L19.0001 13.0625Z" fill="#04809F"/>
<mask id="mask1_210_6461" style="mask-type:alpha" maskUnits="userSpaceOnUse" x="0" y="0" width="39" height="39">
<rect width="39" height="39" rx="19.5" fill="#C4C4C4"/>
</mask>
<g mask="url(#mask1_210_6461)">
</g>
</svg>
