/* XPM */
static char * BRICK_3D_v2_xpm[] = {
"64 64 138 2",
"  	c #3B2921",
". 	c #2E221C",
"+ 	c #463124",
"@ 	c #79735E",
"# 	c #67625C",
"$ 	c #5B5952",
"% 	c #4F4C48",
"& 	c #807B6A",
"* 	c #A1A9A3",
"= 	c #89928C",
"- 	c #93968B",
"; 	c #9F9F8B",
"> 	c #28221F",
", 	c #666A62",
"' 	c #393633",
") 	c #094227",
"! 	c #383F40",
"~ 	c #383B36",
"{ 	c #316A1F",
"] 	c #16582E",
"^ 	c #47443B",
"/ 	c #002922",
"( 	c #32312E",
"_ 	c #756F64",
": 	c #3B2D1D",
"< 	c #2C2A28",
"[ 	c #003422",
"} 	c #252321",
"| 	c #161312",
"1 	c #211713",
"2 	c #1D1C1A",
"3 	c #110D0A",
"4 	c #271B14",
"5 	c #141717",
"6 	c #19120D",
"7 	c #0A0A0A",
"8 	c #1B1B1A",
"9 	c #1F2324",
"0 	c #1A1310",
"a 	c #4C7C11",
"b 	c #160F0C",
"c 	c #21201E",
"d 	c #2E2C26",
"e 	c #2C2A22",
"f 	c #252623",
"g 	c #0F0D0C",
"h 	c #434034",
"i 	c #170606",
"j 	c #000000",
"k 	c #595D5A",
"l 	c #58584D",
"m 	c #2A2824",
"n 	c #393932",
"o 	c #413D37",
"p 	c #3B291E",
"q 	c #332F28",
"r 	c #0F0F0F",
"s 	c #413E38",
"t 	c #57524C",
"u 	c #32221C",
"v 	c #322219",
"w 	c #7C7D73",
"x 	c #534D44",
"y 	c #4D4A44",
"z 	c #221D1A",
"A 	c #375422",
"B 	c #1D3716",
"C 	c #3B5112",
"D 	c #171716",
"E 	c #2F3535",
"F 	c #2A1D17",
"G 	c #3D5212",
"H 	c #130D0A",
"I 	c #3E5416",
"J 	c #1B3313",
"K 	c #271D18",
"L 	c #304918",
"M 	c #385522",
"N 	c #868473",
"O 	c #5B5548",
"P 	c #455A18",
"Q 	c #383531",
"R 	c #433F3C",
"S 	c #405313",
"T 	c #888C86",
"U 	c #083721",
"V 	c #324F1D",
"W 	c #00221C",
"X 	c #66604E",
"Y 	c #49443E",
"Z 	c #36511F",
"` 	c #73746F",
" .	c #565040",
"..	c #435818",
"+.	c #314C1C",
"@.	c #253F1D",
"#.	c #334F1D",
"$.	c #565851",
"%.	c #1D1815",
"&.	c #234915",
"*.	c #3D5913",
"=.	c #292623",
"-.	c #6C6657",
";.	c #435918",
">.	c #494943",
",.	c #425817",
"'.	c #33501E",
").	c #211813",
"!.	c #132E16",
"~.	c #213A19",
"{.	c #112C14",
"].	c #213B19",
"^.	c #072E1B",
"/.	c #1B1917",
"(.	c #315216",
"_.	c #0F2A14",
":.	c #1D3414",
"<.	c #0F2711",
"[.	c #203A18",
"}.	c #415616",
"|.	c #1F3817",
"1.	c #103D1F",
"2.	c #122D15",
"3.	c #282C2C",
"4.	c #1E3514",
"5.	c #2F4B1B",
"6.	c #3E5313",
"7.	c #2E4918",
"8.	c #001D17",
"9.	c #2C4818",
"0.	c #132E17",
"a.	c #314A19",
"b.	c #1C3413",
"c.	c #0F2A13",
"d.	c #0D2610",
"e.	c #2C4615",
"f.	c #183814",
"g.	c #2D4918",
"  .     + +   +         . . . . .   .   + + +   +                 .   . . . .           . . . . .   .   . . +   +               ",
"@ # $ % % + & * = & & @ @ & & & @ # $ % % + - * = & & @ @ $ & & @ # $ % %   & * = - - @ @ @ @ @ @ # $ % . +   & * ; & & & $ & & ",
"# $ # $ >   ; , # # # # @ & # # # $ # $ >   ; , # # # @ , & , # # $ # $ > . ; , # # # @ , , # # # , ' $ >   + - , # # # @ & , # ",
"# # $ # ) ) ) ' # # # , , # # # # # $ # ! . & # # # @ , # , # # # # $ # !   & # # # @ , # # # # ~ { ] ' ! + & ^ # # # , , , # # ",
"# # # ) ) ) / ( ' # # _ % # # # # # # # ) : : $ # # # _ % # # # # # # # > . & # # & # # , _ % % < ] ] ( > ) ) ) ' # # _ % # # # ",
"# # # ] ) / [ : ) ' # % % # # # # # # ] ] ] / } # _ % % % # # # # # # $ >   $ # # _ % % # % $ < ' / ] : : / ) ) ) ' # % % # # # ",
"% # # < | 1 / ] ] ] $ ! ! # # % % # # { ] / : 2 < < % % $ # # % % # # % >   $ % % % % $ # # < ) ) : } < | 3 / ) ] ' $ ! ! # # % ",
"! ! > > ! 4 < [ { { { > ! ! ! ! ! : : [ 5 6 7 : : : ) | ! 8 8 > ! ! > > ! + % > > > ! ! ! 9 ] ] ] / | | 9 0 < | 9 > > > ! ! ! ! ",
". .   .     0 ) : { a 1 . . ) ) : / ) ) ) [ ] ] ] / : ) ) 0 .               . . . . .   0 { { { [ b 0                 .       . ",
"& - & & & & < : c 2 2 < $ ] ] ] / d / ) ] e { ] / } / : ] ] 9   & * ; ; & & & $ $ % % % ( a { ) : : ) ^ & & & @ @ @ @ # $ % % + ",
"& , # # # # ' : d ' < $ ( { ] / d f ( c ( ( ( ( c f c / : { [ 0 - @ @ @ # # @ & # # % $ # < g 6 / ] ] ] ~ # , , # # # , # $ >   ",
"& # # @ # # ' ) ) ) ' ( ' c g : h ( ( ' $ $ $ $ ( ( ( ] ] ] / 1 @ # @ # , @ # # # # # # # % | 1 c / ] { ' # # # # # , # # # ! + ",
"% # $ # # ' ) ) ) / : : ) ) : b h , $ $ $ $ $ $ ! ! { { { [ : 1 h ~ , # , # # # # # $ # # $ > . < : c } ' # # _ % % % $ # $ > . ",
"% $ # $ # $ ] ) / c ) / ] ] ] b < $ $ $ $ $ $ % % ! a { ) 8 ) : ) ) ' , # # $ # # $ # # # # ! 0 ) ) : ( ' ' # % $ % # # $ $ >   ",
"% % $ # $ # ( } } ] ] ] / ] { 1 ! % $ ! ! ! $ ! ! $ 9 < } ] ] / ] ] ] ' # % # # # # # # # # | ] ] ] / ) ) : : ) ) ' % $ # % > . ",
"% > > > ! ! ! 9 { { { [ g 7 9 + ! 8 > 8 > > > 8 > > > > g ] | 4 [ { { { 9 ! > ! i ! ! > > 8 9 { ] / ] ] ] / / : ] ] 9 ! > > !   ",
". . . . .   . j j j ) b 4 1               .   . . . .       1 1 3 : { a 0   .   . . +   +     1 1 b { ] / 3 b [ { { { 4         ",
"# & @ @ # $ % j j j ^ k = & & @ @ $ & & @ # $ % %   & * = - - h h ) : ) h # $ % % +   & * ; & & & ( ^ d e } : 2 ) { a l & & & # ",
"# @ $ $ $ % $ j j j ; , # # # @ , & , # # $ # $ > . ; , # # # h ] ] ] / ] ] # $ >   + - , # # # @ & , j j j ) : g b ^ ~ $ $ $ $ ",
", $ $ $ $ $ % j j j j # # # @ , # , # # # # $ # !   & # # # @ ~ { ] / : ~ ] # # ! + & & # # # , , , # j j j ] ] ] 1 @ $ $ $ $ , ",
"! $ $ $ $ $ $ j j j j $ # # # _ % # # # # # # # > . & # # & # ' ~ m 2 : ) : ' $ > . # $ # # # _ % ' : j j j / ] { 1 ! % $ $ $ # ",
"! $ $ $ $ $ $ % j j j # # _ % % % # # # # # # $ >   $ # # _ % % ' 2 ] ] ] / : : ) ) $ # $ # # % < : / j j j } c |   % $ $ $ $ ! ",
"> $ $ ! ! $ $ ! j j j % % % % % $ # # % % # # % >   $ % % % % $ ' { { { [ c ] ] ] / : $ # # $ ! ) : j j j j ' < >   % ! ! $ % > ",
"> > > > > > 8 8 j j j > > > ! > ! 8 8 > ! ! > > ! + % > > > ! ! 9 a { ) 5 5 { ] / 3 : ) ) > > ] ] ] j j j j > > ! + ! 8 8 8 8 8 ",
"  .             j j j       . 0 .   .     . .     .   . . . . . .   0 1 1 0 4 0 6 1 / ] ] ] : { ] / j j j j . . . .   .     . . ",
"* - & & & & @ @ j j j j % % [ [ [ @ @ @ @ ! @ $ ! ! j j j j + & - & & & & % # # @ @ } / ] { ) e n ^ j j j @ $ $ ! ! ! % % ! + & ",
"# # & , # , , # j j j j $ > / ) ) ) $ $ $ $ # @ $ ! j j j j   & , # # # # # # # , # ~ } ) : [ [ [ j j j j # @ $ $ ! % $ ! 8 + - ",
"$ # $ # # # # # j j j j j ! 6 / ) ) # $ $ $ $ $ $ j j j j j + & # # @ # # # # # # # ' ] ] ] / ) j j j j j $ $ $ $ $ $ $ ! 8   $ ",
"# $ # # # # _ % % j j j j > 0 : ( < $ $ $ $ % $ $ j j j j j   & , # # # # # # % % < { { { [ b j j j j j j $ $ $ $ % $ $ % 8 . % ",
"$ # $ # # # % $ % # j j j | ) ) : ( % $ % $ $ $ j j j j j j j $ # # # # # # $ [ [ [ a { : g 4 j j j j $ $ % $ $ % $ $ $ $ > . % ",
"% $ # $ # # # % # % j j j ] ] ] / [ [ [ $ % $ $ j j j j j j j % $ # % % % # ) ) ) / : ) 2 |   j j j $ $ ! $ $ $ $ $ $ $ $ 8 . % ",
"> > > ! > ! ! ! ! ! j j j j ] / ) / ) ) ) > > > j j j j j j j j > ! > ! ! ! ) ) / : 5 g | ! j j j j 8 > > 8 > i > > 8 8 8 > . % ",
".     + +   +       j j j j 3 3 b ) / ) ) +   [ j j j : j j j j j 1 . . . . 1 [ : ) b 0 . j j j j j   . . +   +                 ",
"# $ % % + @ ; & & & # j j j o } ] ] ] / : ) p j j j j e : j j j j [ [ %   & k / ] ] ] h @ j j j j $ % . +   & * ; & & & $ & & @ ",
"$ # $ >   & , $ $ $ $ j j j ( { { { [ 7 ) ] / j j j j { < { j j j j ) ) 0 ) ) : [ { { { ~ j j j , # $ >   + - , # # # @ & , # # ",
"# $ # !   @ $ $ $ $ , j j j ( a { ) c 0 ] ] / j j j j a ~ } j j j j ) ) ] ] ] / } ) { a j j j j # # # ! + & & # # # , , , # # # ",
"# # # >   ! % $ $ $ # j j j j q ( ( ( r 1 { j j j j s < ' ' } j j j / | { ] / } d } } j j j j j $ # $ > . # $ # # # _ % # # # # ",
"# # $ >   % $ $ $ $ ! j j j j $ $ $ % 8   ( j j j j % % # # ' j j j : | b : ) ) o < j j j j j j # $ $ > . $ # $ # # % % # # # # ",
"# # % >   % ! ! $ % > > j j j j $ $ ! 8   j j j j j % $ # # % j j j j g 1 : ] ] ] < j j j j # % $ # % > . % $ # # $ ! ! # # % % ",
"! > > ! + ! 8 8 8 8 2 > j j j j } 8 2 } + j j j j ~ } ! 8 8 > j j j j ) : 2 / ] { j j j j ! ! ! ! > > ! . % > ! > > > ! ! ! ! ! ",
". . .   .     . .     .   j j j j . .   . j j j j . +   . . . . j j j ] / b 1 0 j j j j j .     . .   .                 .       ",
"+ & - & & & & % & $ % % % j j j j & - & & j j j # # @ @ # $ % % j j j j n ^ & j j j j j % $ $ ! + & * - & & & & @ @ @ @ # $ % % ",
"  & , # # # # # @ & # % $ $ j j j & , # # j j j # # , # , # $ | j j j j [ [ j j j j j % $ # % > + - # # & , # , , # # # , # $ > ",
"+ & # # @ # # # # # # # $ # j j j j j # @ j j j # # # # # # # [ [ j j j ) ) j j j j # # # # % >   $ $ # $ # # # # # # , # # # ! ",
". % # $ # # # # $ # # % $ # j j j j j # # j j j # % % % $ # ) ) ) j j j / j j j j # # $ # # $ > . % # $ # # # # _ % % % $ # $ > ",
"  % $ # $ # $ # # # $ % # $ # j j j j j # j j j $ $ % # # $ ) ) / j j j ] j j j j # $ # # # # ! . % $ # $ # # # % $ % # # $ $ > ",
". % % $ # $ # $ # # $ % $ $ % > j j j j j j j j % % # % $ # % | 1 j j j j j j j j # # # # # # > . % % $ # $ # # # % # % $ # % > ",
"  % > > > ! ! ! ! ! ! ! > > 8 ! + j j j j j j j > ! ! ! ! > > 9 4 j j j j j j j ! i ! ! > > 8 ! . % > > > ! > ! ! ! ! ! ! > > ! ",
". .   .   + + +   +       p + p     j j j j j j           . . . 0 6 j j j j j 4   +                 .     + +   +         . . . ",
"& @ # $ % $ + & * = & & _ _ t & & @ # j j j j j * = - - @ @ @ @ h ] j j j j j ] o ; & @ @ @ % & & # $ % ! ! + - * = & & @ @ & & ",
"# # $ # $ >   ; , # # # _ , & , # # $ j j j j j , # # # @ , , # ' { j j j j { { { ~ $ $ $ # & , $ $ % $ % 8   ; , # # # # @ & # ",
"# # # $ # ! u & # # # _ , # , # # # # j j j j j # # # @ , # # # # ~ j j j j ) { a ( $ $ , , , $ $ $ $ % $ >   & # # # # , , # # ",
"# # # # # >   % $ # # # _ % # # # # # # # > v w # # & # # , _ % % % ( } : : ) } 2 ( $ $ # ! $ $ $ $ $ $ $ 8   % $ # # # _ % # # ",
"# # # # $ >   $ # # _ % % % # # # # # # $ > p $ # # _ % % # % $ % ) ) ) / ] ] ] ( x $ $ ! ! $ $ $ $ $ $ % 8   $ # # # # % % # # ",
"% % # # % 8   k % % % % % $ t # % % # # y }   $ % % % % $ # # % ] ] ] / 2 / ] { < $ $ % z > $ $ ! ! $ $ ! 8   $ % % # $ ! ! # # ",
"! ! ! c 8 A   % > > > ! > B | z > ! ! > > ! + % > > > ! ! [ [ [ { ] / [ [ [ 0 3 2 } 8 C D > > > > > > 8 8 > + % > > > > > ! ! E ",
"F u   F . . 4 F .   .   F G F   .                 .     ) ) ) / ) 3 H / ) ) )   .   . I J . . .   .     . + K +   . . . .   L u ",
"M N O P t $ s Q R % $ $ Q S t T w & & & & @ @ @ _ # $ y U ) / ] ] ] V q W ) U y R s s V Q v @ y @ @ X @ ! $ y Y # $ % E ! F Z ` ",
"Z  .V .. .& V Y R +.# R 1 S @.t #.& , t , $.# # t y # $ %.I ) [ { &.*.=.t @ -...' y s ;.%.L & >.y ,.s $ s $ y '.$ $.$ R 5 ).A  .",
"P !.Z P Y t V ..t >.~.R %.L {.y Y V # t #.Y P Y l #.Y ].^.^.) /.^.&.(._.t >.t #.].y Y V %.L X s y ;.s y s y o '.s y s V %.:.P Y ",
";.!.].P ].t Y ..s V V y %.<.[.Y s V !.Y }.x V |.' V V 1.] 1./ /.( =.:.2.Y o Y ..|.s ;.V 3.4.Z >.s V s |.o }.3.5.3.V s L | 6.P ].",
"].V ].V ].#.Y ~.Y ]...!.I 7.{.[.Y |.V Y ;.!.}.|.Y Y [.{ ] 8.[ [ [ o ].{.Y #.Y {.|.^ }.].9.F |.o ,.V s s V }.Q I |.!.' }.9.4.V !.",
"'.0.V a.].{.>.].#.!...!.I <.L {.V ].V ]...!.|.!.Q ].V < g : / ) ) B {.>.{.].#.{.I '.!.V b.F B I V c.I |.!.I c.}.:.!.!.I d.c.V !.",
"_.:._.a.<.<.e._.:.<.J 9.c.:.{.<.9.c.:.c.5.:._.c.5.:.<.> 9 : < / ) f._.B _.5.{.a.I <.<.g._.:.<.d.9.d.9.c.C d.c.9.c.9.J e.J 4.!.<."};
