/* XPM */
static char *b5d2adb2f97b41e5977cc8f828d765f4rZVeMt582uqXFqR1[] = {
/* columns rows colors chars-per-pixel */
"67 111 65 1 ",
"  c None",
". c gray1",
"X c #070707",
"o c #0B0B0B",
"O c gray6",
"+ c gray7",
"@ c #161616",
"# c gray10",
"$ c gray11",
"% c #232323",
"& c gray14",
"* c gray17",
"= c #2F2F2F",
"- c #323232",
"; c #343434",
": c #393939",
"> c #3C3C3C",
", c #414141",
"< c #444444",
"1 c gray29",
"2 c #4E4E4E",
"3 c #515151",
"4 c #555555",
"5 c gray35",
"6 c #5F5F5F",
"7 c gray39",
"8 c #646464",
"9 c gray42",
"0 c #6D6D6D",
"q c gray44",
"w c #747474",
"e c #7B7B7B",
"r c #7C7C7C",
"t c #838383",
"y c gray53",
"u c #898989",
"i c gray56",
"p c gray57",
"a c #959595",
"s c gray60",
"d c gray61",
"f c #A0A0A0",
"g c #A5A5A5",
"h c gray66",
"j c #AFAFAF",
"k c gray70",
"l c #B6B6B6",
"z c #BBBBBB",
"x c gray",
"c c gray76",
"v c #C5C5C5",
"b c #CBCBCB",
"n c #CECECE",
"m c gray82",
"M c #D5D5D5",
"N c gray85",
"B c #DFDFDF",
"V c #E2E2E2",
"C c #E4E4E4",
"Z c #EAEAEA",
"A c #ECECEC",
"S c #F3F3F3",
"D c #F4F4F4",
"F c gray98",
"G c #FEFEFE",
/* pixels */
"                                 FFFFG                             ",
"                               DMkfffxBA                           ",
"                             FMi2=***=3wm                          ",
"                            Fs2%#+@$%$&%1lBG                       ",
"                           Gi$#$%$$$%&*%@-2dnD                     ",
"                           a%%$#@&%$##%%#@O&<aZ                    ",
"                          h%#%#%:%%%#$=%%$#@@#pS                   ",
"                         S=#$$#=,%%%$**%$&&$$@&j                   ",
"                        De+$$@O&=%%%%&$$$&&%$%O:M                  ",
"                        M%+#@:3+&&%$&$#$%&$$%$$#rG                 ",
"                       DwO@O$qp.@&$$%##$#@&@@&$+=z                 ",
"                       v*$+-cZl1@$%#%$#@:1>j-#$#$r                 ",
"                      G7%%+152xm&O$$$$##<8&gpO##$:B                ",
"                       ,*$$*+>>3-@@$##@9:$@6f##@##cG               ",
"                       >%$&+2Di+*%###O>y;zs=i<###+0A               ",
"                       7##*;bGs#*$$#@X1*yAGe14$$#@$pD              ",
"                       0#$>eGFu>i$##+#&>ruFv$:%$#$$-x              ",
"                       5@*>wGGa,t@@#O$,>+yGl;3$$$$&%sG             ",
"                       1+-=rGGd#%#$#+&<$-mGc>6%%%#&%7C             ",
"                       <@%$tGGpO#$$#o-<@1DGx$:;&&$&%-c             ",
"                      F2@@%,cM2@$$&$O-1>=bG724&%%&**&x             ",
"                      m;@$==&<#$#%*$@@;z21u@z5%@#&&*%x             ",
"                      e##*=:,5$##&=$#+obN8>tM-*7,$&*%x             ",
"                     V6@#$<:<8.@%&=$+#O;bB8pk+<N4o->%z             ",
"                     j:#o&;3#X1<@$%#+$%X=4&gwo6N=O;>&z             ",
"     SZG             k;$;b2%Oym;+%#&&&-#.o@w>#eho@56@M             ",
"     DSG             l=#:u-@yy2#$##%%#@=t#$-$>d;+%41OB             ",
"                    C9#$%#+yr@O%$@##@#O$jpf5$<-#:**##lF            ",
"                    M1$%%Ore@#%#@@##$##->e1$=%+$*&$+%pF            ",
"                    V>$%+>r$$$$#@#$#@#@&;#+$$+@$&*%@$:VG           ",
"                    B>@#@6*#$##@#%$$#$##%#%%@##%&&$@$2zD           ",
"                   Fs%#@**$%@$%@$%$###@$%%%###%$#%%#$<,m           ",
"                   F0@##%$$%$&$@$$#$#@+%&%#$@@&#@$###&@6S          ",
"                   v:#$#%%#$%&++@#%$@@@$%%%$#%%##%##$&=osF         ",
"                   s&$%#&%#%%#*%#%&$@@#-%$;&$$$$#$@@%%&+,Z         ",
"                  Fa$$##*$%%$3u%@&>%@+;3$%%%$%#$$$@#$%%$OhG        ",
"                  n2$%+=:#$#$uy+#*:%@$&#-,#$$$%&@$@@#$$*+,A        ",
"                  c*%%O0<@%%$;&%%**#+#$+:1$#%$$&@#$#$%$&$@iS       ",
"                 Gb&%#$f-@%$%&&$>9*+@$%$$$%$#$####%$#%$%&@+z       ",
"                 Dp%&O6u$#$$$%&+7h&O&-%$%%$#$$%##%$$%$%%%%Oh       ",
"                 Zq#%X72@$$@#;%+0u%@*-%$*%##%$$$#$#$&%%$$$+pG      ",
"                 V8#@;4&#$#%u8+=6;&$&-%%&%##$$#%$#=&#%%%#%#;V      ",
"                 N4#.8i&#$+<N:@85#=$*-$%&%$$$%$%$+09O#%$#&&@rD     ",
"                 m3$#;2%$%@ra+$3>=>$;*$&*%$$&%%$#o7f-@%$%&&#-BG    ",
"                 A3#w,@#$@-u-@<7=02#-%#=&%$$&$*%%@&q1+%&&%%&#yF    ",
"        NdC     Gm*+s5;,$#*<##t0<s=@%%#=*&&$&%=&%$+28%$&%$%%$=c    ",
"       M1%v     Z7o$l44j*+--#3f*68$#%%+:-%&@&=:*#$o,h1#%%$&%%$2V   ",
"      N2XyF    Df%+$q6%3&$*#9C2#9>#$*&#,-%&#&*<=#$$#sl;%&%%&&&:n   ",
"     Fw@@gF   Gn>@$*;;$;*$$-bio*,*$=4&%3=%**>=3=@#&$%s5#&%%%&&=jG  ",
"     z;$$:kCFFV9##$=$+<<%#+7m$@>:-O5i**3&1>-1:2%$#$%%$*&%%&%#:>5C  ",
"     a&%*&-3da6%#%:*@+jq$##t9O-;=&Oaa#;<$q4%:>-$%%%$&#,7=&*&#2w-xG ",
"     d*%=4=&<&@$%85@@&Bw$$&1$%;*=+-ve@4-$f4$=<*$%$-=&#:i,$**$%7>uD ",
"     l=$&,&;4%%&*<*---v9#$%$%*&-=Xwv;&r&-c,%=-%%&#*-%%O4a:%*$%5,yD ",
"     D9$&$&%&&*%%$@4>,M9#%$%&*&&#Oaj%*1$,f:%=*&*&%&==%o5Az1%%&t3eS ",
"      v=$*&*==&%&*&+$hD0%%%%&=&$O;kq@-=$;9;&**--=&&*-&o7A d&&%t8rS ",
"      Fe#+$$**&$&$+-dF 0%##$%&#@#0j=#-*+4s=$%&*;=%&%&$#sS j&$*u3qS ",
"      GVp-@OOO+oOo,bF Ge$$@+*%#12,,#-=%+ll%#%=**&*=&*$;n  h*@,k,yS ",
"        Sx5;-=;::9mG   r$*&>*+>a;o&2;&+2C0#%*=--&*=$,,2N  j&$-2,nG ",
"         FVmvbmNMC    N3%$8w&#weo+27&%OqC,@&&*-;%*&$2,pD  k%&*$dF  ",
"           G   G      k=%*i<%6p*o%6<$%+pm=+>:%-%#*@>q-gF Se$&&=c   ",
"                     Fp*#59$=81O@<7*%+;Br+=l:%<$*=+70&jF n;$*%4C   ",
"                     B4#*0:%,,@@&>;%%+1v>Ouf#;=2e#@e3=nFGr$*%&hG   ",
"                     v;@5r&;<-@%=&&*%@sp@-M2@=-u1.2v32A l;&%&iD    ",
"                    V7$&r1%ie+#-=&&&%;r>X0i@%&9uO+an-4AS6$#-jF     ",
"                   Gd%%&2=&vkO-:&&&&%<1+<c:@$-7*orF9%lZe$;qxG      ",
"                   Fu&$-<&2v<$,&%&&&&:=&h9+#*=&O;Mg%f SaemS        ",
"                   n<$%1<$faO==$$*=%&*@59$#&*%#@ef%qV              ",
"                   l;#$3-<h*#=%$:>*%&*%%%%$&$&&&;*tS               ",
"                  Fg&#*>*i0O*=$*2;%%&%&%%$$&4t:$;aZ                ",
"                  V6@$=;*:%%*&%-;&$%&%$&-$$rl7+qv                  ",
"                  M2@$--$-:#$&&&*&&3,$&gq+tg%*uZG                  ",
"                  B3@&;&$j5#6;#$%#ra-@8V<<V**bD                    ",
"                  C7+,-@qM=0n%#r2$r7*%54@uq&hG                     ",
"                  A9@2=+lk$vkXwv;@&;:*#X*5*aD                      ",
"                  C4&8=Ojs*d11V5.*=**$,3=$3F                       ",
"                  B2&9=$x9%;$rjO-3-%&#jj**s                        ",
"                  C1%4$3B,$$*<;@89$%#=Bb&$eG                       ",
"                 Gb*%>#8A>$;-$$%21%@$pSFr%wF                       ",
"                 Da$&-$<v,%5:#%&61#>2NG AxCG                       ",
"                 Fg##:*%8;&e1@%&w5*dtZ                             ",
"                 GN>#-=%4<&q<@%&t0&cFG                             ",
"                  N2#==$1q%3>#%%wq$h                               ",
"                  M2#=-*;8&<7%%*57=f                               ",
"                  N4*>2-&2-=2&**&%=g                               ",
"                  V4*<,>&==%$*&$===uVAG                            ",
"                  Z7@=**&&**&-*@,h0+=0M                            ",
"                  A8*9t*#**=&;>&#iz;18vG                           ",
"                  S03ZDd*%==%*5,%*enVS                             ",
"                   k:B Ds*$=&=3*qe>V                               ",
"                   C:r  Sp%*:*985z67C                              ",
"                   Fh;cF Sp%::,e-ec>wS                             ",
"                    Fr1A  Sp%==&*4CvdA                             ",
"                     V50Z  Sd$*-$=xFGG                             ",
"                     FB5qcG Dg-&&$eZ                               ",
"                      GCuqD  Ds$&$rF                               ",
"                        DCG   B:$$3C                               ",
"                              D5#$4S                               ",
"                              F0$%9F                               ",
"                              A7*-8Z                               ",
"                              F7#*uS                               ",
"                              A3o>ZG                               ",
"                             Gj&$tD                                ",
"                             Sw@%l                                 ",
"                             n&$<z                                 ",
"                            B9@rND                                 ",
"                          Fn6=sZ                                   ",
"                          B>>bS                                    ",
"                          N5nG                                     ",
"                          GV                                       ",
"                                                                   ",
"                                  CgA                              "
};
