<svg width="24" height="24" viewBox="0 0 24 24" fill="none" xmlns="http://www.w3.org/2000/svg">
<g opacity="0.6">
<mask id="mask0_14_4451" style="mask-type:luminance" maskUnits="userSpaceOnUse" x="0" y="0" width="24" height="24">
<rect width="24" height="24" rx="8" transform="matrix(1 0 0 -1 0 24)" fill="white"/>
</mask>
<g mask="url(#mask0_14_4451)">
<rect width="24" height="24" fill="#E8E9EB"/>
</g>
</g>
<path fill-rule="evenodd" clip-rule="evenodd" d="M12.8 8.0002C12.8 7.55837 12.4418 7.2002 12 7.2002C11.5581 7.2002 11.2 7.55837 11.2 8.0002V11.2002H7.99995C7.55812 11.2002 7.19995 11.5584 7.19995 12.0002C7.19995 12.442 7.55812 12.8002 7.99995 12.8002H11.2V16.0002C11.2 16.442 11.5581 16.8002 12 16.8002C12.4418 16.8002 12.8 16.442 12.8 16.0002V12.8002H16C16.4418 12.8002 16.8 12.442 16.8 12.0002C16.8 11.5584 16.4418 11.2002 16 11.2002H12.8V8.0002Z" fill="#3F434A"/>
</svg>
