<svg width="20" height="20" viewBox="0 0 20 20" fill="none" xmlns="http://www.w3.org/2000/svg">
<path d="M10 13.9584C9.83492 13.9562 9.67717 13.8897 9.56042 13.773C9.44367 13.6562 9.37717 13.4985 9.375 13.3334V9.16675C9.375 9.001 9.44083 8.842 9.55808 8.72483C9.67525 8.60758 9.83425 8.54175 10 8.54175C10.1657 8.54175 10.3248 8.60758 10.4419 8.72483C10.5592 8.842 10.625 9.001 10.625 9.16675V13.3334C10.6228 13.4985 10.5563 13.6562 10.4396 13.773C10.3228 13.8897 10.1651 13.9562 10 13.9584Z" fill="black"/>
<path d="M10 7.70841C9.83492 7.70626 9.67717 7.63971 9.56042 7.52297C9.44367 7.40622 9.37717 7.24851 9.375 7.08341V6.66675C9.375 6.50099 9.44083 6.34201 9.55808 6.22481C9.67525 6.1076 9.83425 6.04175 10 6.04175C10.1657 6.04175 10.3248 6.1076 10.4419 6.22481C10.5592 6.34201 10.625 6.50099 10.625 6.66675V7.08341C10.6228 7.24851 10.5563 7.40622 10.4396 7.52297C10.3228 7.63971 10.1651 7.70626 10 7.70841Z" fill="black"/>
<path d="M10 17.5C8.51667 17.5 7.06659 17.0602 5.83322 16.236C4.59986 15.4119 3.63857 14.2406 3.07091 12.8702C2.50325 11.4997 2.35472 9.99167 2.64412 8.53683C2.9335 7.08197 3.64781 5.7456 4.6967 4.6967C5.7456 3.64781 7.08197 2.9335 8.53683 2.64412C9.99167 2.35472 11.4997 2.50325 12.8702 3.07091C14.2406 3.63857 15.4119 4.59986 16.236 5.83322C17.0602 7.06659 17.5 8.51667 17.5 10C17.5 11.9892 16.7098 13.8968 15.3033 15.3033C13.8968 16.7098 11.9892 17.5 10 17.5ZM10 3.75C8.76383 3.75 7.5555 4.11656 6.52769 4.80332C5.49988 5.49007 4.6988 6.46619 4.22576 7.60823C3.75271 8.75025 3.62894 10.0069 3.87009 11.2193C4.11125 12.4317 4.70651 13.5453 5.58058 14.4194C6.45467 15.2935 7.56831 15.8887 8.78067 16.1299C9.99308 16.3711 11.2498 16.2473 12.3917 15.7743C13.5338 15.3012 14.5099 14.5001 15.1967 13.4723C15.8834 12.4445 16.25 11.2362 16.25 10C16.25 8.34242 15.5915 6.75269 14.4194 5.58058C13.2473 4.40848 11.6576 3.75 10 3.75Z" fill="black"/>
</svg>
