<svg width="1440" height="1024" viewBox="0 0 1440 1024" fill="none" xmlns="http://www.w3.org/2000/svg">
<path opacity="0.02" fill-rule="evenodd" clip-rule="evenodd" d="M720 1437C1230.86 1437 1645 1022.86 1645 512C1645 1.1366 1230.86 -413 720 -413C209.137 -413 -205 1.1366 -205 512C-205 1022.86 209.137 1437 720 1437Z" fill="#04809F"/>
<path opacity="0.02" fill-rule="evenodd" clip-rule="evenodd" d="M720.445 1231.89C1117.78 1231.89 1439.89 909.783 1439.89 512.445C1439.89 115.107 1117.78 -207 720.445 -207C323.107 -207 1 115.107 1 512.445C1 909.783 323.107 1231.89 720.445 1231.89Z" fill="#04809F"/>
<path opacity="0.02" fill-rule="evenodd" clip-rule="evenodd" d="M720.28 1077.56C1032.48 1077.56 1285.56 824.476 1285.56 512.28C1285.56 200.085 1032.48 -53 720.28 -53C408.085 -53 155 200.085 155 512.28C155 824.476 408.085 1077.56 720.28 1077.56Z" fill="#04809F"/>
<path opacity="0.02" fill-rule="evenodd" clip-rule="evenodd" d="M720.11 923.22C947.16 923.22 1131.22 739.16 1131.22 512.11C1131.22 285.06 947.16 101 720.11 101C493.06 101 309 285.06 309 512.11C309 739.16 493.06 923.22 720.11 923.22Z" fill="#04809F"/>
</svg>
