<svg width="30" height="30" viewBox="0 0 30 30" fill="none" xmlns="http://www.w3.org/2000/svg">
<mask id="mask0_441_18920" style="mask-type:alpha" maskUnits="userSpaceOnUse" x="0" y="0" width="30" height="30">
<rect width="30" height="30" rx="10" fill="#C4C4C4"/>
</mask>
<g mask="url(#mask0_441_18920)">
<rect width="30" height="30" fill="white"/>
</g>
<path fill-rule="evenodd" clip-rule="evenodd" d="M18.6875 19.6093C18.942 19.8638 19.3547 19.8638 19.6092 19.6093C19.8638 19.3547 19.8638 18.942 19.6092 18.6874L15.922 15.0002L19.6093 11.3129C19.8638 11.0584 19.8638 10.6457 19.6093 10.3911C19.3547 10.1366 18.942 10.1366 18.6875 10.3911L15.0002 14.0783L11.3129 10.3911C11.0584 10.1366 10.6457 10.1366 10.3911 10.3911C10.1366 10.6457 10.1366 11.0584 10.3911 11.3129L14.0783 15.0002L10.3911 18.6874C10.1366 18.942 10.1366 19.3547 10.3911 19.6093C10.6457 19.8638 11.0584 19.8638 11.3129 19.6093L15.0002 15.922L18.6875 19.6093Z" fill="#3F434A"/>
</svg>
