<svg width="20" height="20" viewBox="0 0 20 20" fill="none" xmlns="http://www.w3.org/2000/svg">
<path fill-rule="evenodd" clip-rule="evenodd" d="M4.36111 3.5C4.13273 3.5 3.9137 3.59072 3.75221 3.75221C3.59072 3.9137 3.5 4.13273 3.5 4.36111V15.6389C3.5 15.8673 3.59072 16.0863 3.75221 16.2478C3.9137 16.4093 4.13273 16.5 4.36111 16.5H7.58333C7.99755 16.5 8.33333 16.8358 8.33333 17.25C8.33333 17.6642 7.99755 18 7.58333 18H4.36111C3.73491 18 3.13435 17.7512 2.69155 17.3084C2.24876 16.8657 2 16.2651 2 15.6389V4.36111C2 3.73491 2.24876 3.13435 2.69155 2.69155C3.13435 2.24876 3.73491 2 4.36111 2H7.58333C7.99755 2 8.33333 2.33579 8.33333 2.75C8.33333 3.16421 7.99755 3.5 7.58333 3.5H4.36111ZM12.6919 5.4419C12.9848 5.14901 13.4597 5.14901 13.7526 5.4419L17.7803 9.46968C17.8597 9.54903 17.9175 9.64175 17.9539 9.74058C17.9765 9.80199 17.9914 9.86718 17.9972 9.93494C18.0065 10.042 17.9928 10.1507 17.9562 10.253C17.9201 10.3542 17.8614 10.4493 17.7803 10.5303L13.7526 14.5581C13.4597 14.851 12.9848 14.851 12.6919 14.5581C12.399 14.2652 12.399 13.7903 12.6919 13.4975L15.4394 10.75H7.58331C7.1691 10.75 6.83331 10.4142 6.83331 10C6.83331 9.58579 7.1691 9.25 7.58331 9.25H15.4393L12.6919 6.50256C12.399 6.20967 12.399 5.73479 12.6919 5.4419Z" fill="#8A9099"/>
</svg>
