<svg width="20" height="20" viewBox="0 0 20 20" fill="none" xmlns="http://www.w3.org/2000/svg">
<path fill-rule="evenodd" clip-rule="evenodd" d="M8.24209 4.34207C8.78126 3.8029 9.51253 3.5 10.275 3.5C11.0375 3.5 11.7688 3.8029 12.308 4.34207C12.8471 4.88124 13.15 5.6125 13.15 6.375V8.52499H7.40002V6.375C7.40002 5.6125 7.70293 4.88124 8.24209 4.34207ZM6.64706 10.025C6.64805 10.025 6.64904 10.025 6.65002 10.025C6.65101 10.025 6.652 10.025 6.65299 10.025H13.8971C13.8981 10.025 13.899 10.025 13.9 10.025C13.901 10.025 13.902 10.025 13.903 10.025H15.35C15.7366 10.025 16.05 10.3384 16.05 10.725V15.8C16.05 16.1866 15.7366 16.5 15.35 16.5H5.2C4.8134 16.5 4.5 16.1866 4.5 15.8V10.725C4.5 10.3384 4.8134 10.025 5.2 10.025H6.64706ZM5.90002 8.52499V6.375C5.90002 5.21468 6.36096 4.10188 7.18143 3.28141C8.0019 2.46094 9.1147 2 10.275 2C11.4353 2 12.5481 2.46094 13.3686 3.28141C14.1891 4.10188 14.65 5.21468 14.65 6.375V8.52499H15.35C16.565 8.52499 17.55 9.50997 17.55 10.725V15.8C17.55 17.015 16.565 18 15.35 18H5.2C3.98497 18 3 17.015 3 15.8V10.725C3 9.50997 3.98497 8.52499 5.2 8.52499H5.90002Z" fill="#3F434A"/>
</svg>
