<svg width="20" height="20" viewBox="0 0 20 20" fill="none" xmlns="http://www.w3.org/2000/svg">
<path fill-rule="evenodd" clip-rule="evenodd" d="M3.5847 5.36875C3.70384 5.15013 3.93617 5 4.20006 5H15.8001C16.064 5 16.2963 5.15013 16.4154 5.36876L10.0001 9.85951L3.5847 5.36875ZM2.0001 5.68723C1.99998 5.69447 1.99997 5.7017 2.00006 5.70893V14.4C2.00006 15.6117 2.98835 16.6 4.20006 16.6H15.8001C17.0118 16.6 18.0001 15.6117 18.0001 14.4C18.0001 13.4324 18.0031 12.4646 18.0061 11.4968C18.0122 9.56331 18.0182 7.6296 18.0001 5.69659C18.0001 5.69373 18.0001 5.69086 18 5.68799C18 5.68524 18 5.68248 18 5.67972C17.9888 4.49855 17.0049 3.5 15.8001 3.5H4.20006C2.99261 3.5 2.00701 4.48135 2.0001 5.68723ZM16.5001 7.1405V14.4C16.5001 14.7833 16.1833 15.1 15.8001 15.1H4.20006C3.81677 15.1 3.50006 14.7833 3.50006 14.4V7.14049L9.56997 11.3894C9.82821 11.5702 10.1719 11.5702 10.4302 11.3894L16.5001 7.1405Z" fill="#8A9099"/>
</svg>
