<svg width="22" height="22" viewBox="0 0 22 22" fill="none" xmlns="http://www.w3.org/2000/svg">
<path d="M17.8748 14.6537C17.2581 13.94 16.1042 12.8665 16.1042 9.34995C16.1042 6.67901 14.3652 4.54089 12.0204 4.01633V3.29995C12.0204 2.69254 11.5633 2.19995 10.9996 2.19995C10.4359 2.19995 9.97882 2.69254 9.97882 3.29995V4.01633C7.63401 4.54089 5.89504 6.67901 5.89504 9.34995C5.89504 12.8665 4.74114 13.94 4.12446 14.6537C3.93294 14.8754 3.84804 15.1404 3.84963 15.4C3.85314 15.9637 4.26395 16.5 4.87425 16.5H17.125C17.7353 16.5 18.1464 15.9637 18.1496 15.4C18.1512 15.1404 18.0663 14.875 17.8748 14.6537ZM6.00516 14.85C6.68249 13.8885 7.42302 12.2949 7.42654 9.36989C7.42654 9.36301 7.42462 9.35683 7.42462 9.34995C7.42462 7.22351 9.02507 5.49995 10.9996 5.49995C12.9742 5.49995 14.5746 7.22351 14.5746 9.34995C14.5746 9.35683 14.5727 9.36301 14.5727 9.36989C14.5762 12.2952 15.3167 13.8888 15.9941 14.85H6.00516ZM10.9996 19.8C12.127 19.8 13.0415 18.8151 13.0415 17.6H8.95772C8.95772 18.8151 9.87221 19.8 10.9996 19.8Z" fill="#3F434A"/>
</svg>
