<svg width="17" height="17" viewBox="0 0 17 17" fill="none" xmlns="http://www.w3.org/2000/svg">
<path d="M14.3928 2.60346L14.3928 2.60346C14.9764 3.18552 15.4371 3.879 15.7474 4.64266C16.0577 5.40614 16.2114 6.22421 16.1993 7.04826C16.1843 8.72653 15.5074 10.331 14.3159 11.5128C12.2803 13.5477 9.40612 14.0029 7.02379 12.7009L3.70965 16.0149C3.70963 16.0149 3.70961 16.0149 3.70959 16.0149C3.65096 16.0736 3.58135 16.1201 3.50473 16.1519C3.42809 16.1837 3.34593 16.2 3.26297 16.2C3.18 16.2 3.09785 16.1837 3.0212 16.1519C2.94457 16.1201 2.87496 16.0736 2.81633 16.0149C2.81631 16.0149 2.81629 16.0149 2.81628 16.0149L0.985127 14.1833L0.985063 14.1832C0.926404 14.1246 0.879868 14.055 0.848114 13.9784C0.816349 13.9017 0.8 13.8195 0.8 13.7366C0.8 13.6536 0.81635 13.5714 0.848114 13.4948C0.879879 13.4181 0.926437 13.3485 0.985129 13.2898M14.3928 2.60346L0.985129 13.2898M14.3928 2.60346L14.3915 2.60225M14.3928 2.60346L14.3915 2.60225M0.985129 13.2898L4.29823 9.97527C2.99243 7.59402 3.44844 4.72013 5.48598 2.68194M0.985129 13.2898L5.48598 2.68194M14.3915 2.60225C13.199 1.43328 11.5916 0.785208 9.92188 0.800256M14.3915 2.60225L9.92188 0.800256M9.92188 0.800256C8.25246 0.815302 6.65718 1.49202 5.48598 2.68194M9.92188 0.800256L5.48598 2.68194M7.27284 11.3767L7.27214 11.3763C7.15059 11.2973 7.0057 11.2624 6.86153 11.2771C6.71736 11.2919 6.58259 11.3556 6.47957 11.4575L6.47881 11.4582L3.26292 14.6748L2.32482 13.7366L5.54084 10.5191L5.5409 10.5191C5.64373 10.4161 5.70786 10.2808 5.72248 10.1361C5.73707 9.99146 5.70138 9.84626 5.62142 9.72492C5.36694 9.33718 5.17217 8.91481 5.0425 8.47202L8.52444 11.9545C8.08222 11.825 7.6603 11.6306 7.27284 11.3767ZM13.4235 10.6186L13.4234 10.6186L13.4209 10.6211C12.6312 11.4329 11.5955 11.9594 10.4763 12.12L4.87776 6.52044C5.03934 5.40146 5.56626 4.36619 6.37787 3.57668L6.37791 3.57671L6.38115 3.57342C7.31629 2.62069 8.59103 2.07779 9.92579 2.06378C11.2602 2.04977 12.5457 2.56549 13.5005 3.49789C13.9643 3.96103 14.3303 4.51262 14.5769 5.11994C14.8237 5.72759 14.9458 6.37864 14.936 7.03442L14.936 7.03553C14.9235 8.38253 14.3799 9.67016 13.4235 10.6186Z" fill="white" stroke="white" stroke-width="0.4"/>
</svg>
