<svg width="30" height="30" viewBox="0 0 30 30" fill="none" xmlns="http://www.w3.org/2000/svg">
<g clip-path="url(#clip0_14_1066)">
<path d="M27.4018 10.3844C24.9961 5.46083 22.4186 5.11687 20.0188 6.29037C19.2997 6.64206 18.6817 7.09252 18.2283 7.67974H11.7721C11.3193 7.09252 10.7012 6.64206 9.98212 6.29037C7.58233 5.11687 5.00488 5.46083 2.59925 10.3844C0.191618 15.307 -1.13129 22.946 1.26844 24.1194C2.74363 24.8402 5.28137 22.9458 7.57718 20.2384C8.23559 21.4509 9.5201 22.274 10.9968 22.274C12.892 22.274 14.4696 20.918 14.8147 19.1235H15.1853C15.5303 20.918 17.108 22.274 19.0032 22.274C20.4731 22.274 21.7521 21.4583 22.4133 20.2551C24.8598 23.0282 27.3695 24.7848 28.7307 24.1194C31.1323 22.946 29.8073 15.307 27.4018 10.3844ZM8.34157 14.8879C8.34157 14.9318 8.32794 14.9718 8.31663 15.012C8.27071 15.1761 8.14374 15.2982 7.97713 15.3393C7.94138 15.3471 7.9072 15.3608 7.86863 15.3608H7.52516H6.31308C6.05173 15.3608 5.84014 15.1487 5.84014 14.8879V13.9331H4.88457C4.62322 13.9331 4.41175 13.7211 4.41175 13.4603V11.9047C4.41175 11.6439 4.62328 11.4318 4.88457 11.4318H5.8402V10.4753C5.8402 10.2144 6.0518 10.0023 6.31315 10.0023H7.52523H7.86869C8.13004 10.0023 8.34157 10.2144 8.34157 10.4753V11.4318H9.2972C9.55855 11.4318 9.77015 11.6439 9.77015 11.9047V13.4603C9.77015 13.7211 9.55855 13.9331 9.2972 13.9331H8.34157V14.8879ZM10.9968 20.7304C9.70167 20.7304 8.65174 19.6805 8.65174 18.3854C8.65174 17.0902 9.70167 16.0402 10.9968 16.0402C12.2919 16.0402 13.3419 17.0902 13.3419 18.3854C13.3419 19.6805 12.2919 20.7304 10.9968 20.7304ZM19.0032 20.7304C17.708 20.7304 16.6581 19.6805 16.6581 18.3854C16.6581 17.0902 17.708 16.0402 19.0032 16.0402C20.2983 16.0402 21.3483 17.0902 21.3483 18.3854C21.3483 19.6805 20.2983 20.7304 19.0032 20.7304ZM21.1816 13.5825C20.6848 13.5825 20.2827 13.1788 20.2827 12.6815C20.2827 12.1862 20.6848 11.7825 21.1816 11.7825C21.679 11.7825 22.0811 12.1862 22.0811 12.6815C22.0811 13.1789 21.6789 13.5825 21.1816 13.5825ZM23.3639 15.3706C23.2618 15.4106 23.1524 15.437 23.0362 15.437C23.0176 15.437 23.0019 15.4272 22.9833 15.4262C22.5642 15.4009 22.2369 15.0912 22.167 14.6857C22.1587 14.6358 22.1372 14.5899 22.1372 14.5372C22.1372 14.0408 22.5388 13.6373 23.0362 13.6373C23.1524 13.6373 23.2618 13.6636 23.3639 13.7038C23.6976 13.8346 23.9351 14.1571 23.9351 14.5372C23.9351 14.9171 23.6976 15.2386 23.3639 15.3706ZM23.3639 11.6615C23.2618 11.7016 23.1524 11.7279 23.0362 11.7279C22.5388 11.7279 22.1372 11.3243 22.1372 10.828C22.1372 10.3316 22.5388 9.92806 23.0362 9.92806C23.1524 9.92806 23.2618 9.95444 23.3639 9.99452C23.6976 10.1255 23.9351 10.4479 23.9351 10.828C23.9351 11.208 23.6976 11.5296 23.3639 11.6615ZM24.8906 13.5825C24.3933 13.5825 23.9917 13.1788 23.9917 12.6815C23.9917 12.1862 24.3933 11.7825 24.8906 11.7825C25.3879 11.7825 25.7895 12.1862 25.7895 12.6815C25.7895 13.1789 25.388 13.5825 24.8906 13.5825Z" fill="#49C96D"/>
</g>
<defs>
<clipPath id="clip0_14_1066">
<rect width="30" height="30" fill="white"/>
</clipPath>
</defs>
</svg>
