<svg width="15" height="15" viewBox="0 0 15 15" fill="none" xmlns="http://www.w3.org/2000/svg">
<path d="M13.2515 1.74507C12.0969 0.613184 10.5404 -0.0143222 8.92369 0.000248182C7.30697 0.0148186 5.76207 0.670276 4.62797 1.82279C2.61117 3.83981 2.19722 6.68596 3.54707 9.00923L0.1265 12.4313C0.0863969 12.4714 0.0545835 12.519 0.032878 12.5714C0.0111724 12.6237 0 12.6799 0 12.7366C0 12.7933 0.0111724 12.8494 0.032878 12.9018C0.0545835 12.9542 0.0863969 13.0018 0.1265 13.0418L1.95776 14.8735C1.99783 14.9136 2.04541 14.9454 2.09778 14.9671C2.15015 14.9888 2.20628 15 2.26297 15C2.31965 15 2.37579 14.9888 2.42815 14.9671C2.48052 14.9454 2.5281 14.9136 2.56817 14.8735L5.98964 11.4522C8.31415 12.7981 11.1606 12.3849 13.1748 10.3711C14.3292 9.22626 14.9849 7.67181 14.9994 6.0459C15.0111 5.24845 14.8624 4.45679 14.5621 3.71796C14.2619 2.97912 13.8162 2.3082 13.2515 1.74507ZM6.16322 10.544C6.07995 10.4899 5.98069 10.466 5.88193 10.4761C5.78316 10.4862 5.69083 10.5298 5.62025 10.5997L2.26292 13.9577L1.04202 12.7366L4.39939 9.37774C4.46966 9.30739 4.5135 9.21492 4.52349 9.11597C4.53348 9.01702 4.50901 8.91765 4.45422 8.83466C4.06142 8.23618 3.80507 7.55859 3.70334 6.84994L8.14653 11.2939C7.43858 11.192 6.76151 10.936 6.16322 10.544ZM12.5643 9.7606C11.7202 10.6281 10.6058 11.1821 9.40481 11.3314L3.66634 5.59185C3.8166 4.39101 4.37103 3.27709 5.23842 2.43332C6.21066 1.4428 7.53596 0.87836 8.92369 0.863791C10.3114 0.849221 11.6483 1.38571 12.6411 2.3556C13.1242 2.83782 13.5054 3.41223 13.7622 4.0447C14.019 4.67718 14.1461 5.35483 14.136 6.03739C14.123 7.43708 13.5581 8.77507 12.5643 9.7606Z" fill="white"/>
</svg>
