<svg width="24" height="24" viewBox="0 0 24 24" fill="none" xmlns="http://www.w3.org/2000/svg">
<g opacity="0.6">
<mask id="mask0_628_12745" style="mask-type:luminance" maskUnits="userSpaceOnUse" x="0" y="0" width="24" height="24">
<rect width="24" height="24" rx="8" transform="matrix(1 0 0 -1 0 24)" fill="white"/>
</mask>
<g mask="url(#mask0_628_12745)">
<rect width="24" height="24" fill="#E8E9EB"/>
</g>
</g>
<path fill-rule="evenodd" clip-rule="evenodd" d="M8.5 11.4127C8.5 9.80406 9.80406 8.5 11.4127 8.5C13.0214 8.5 14.3254 9.80406 14.3254 11.4127C14.3254 13.0214 13.0214 14.3254 11.4127 14.3254C9.80406 14.3254 8.5 13.0214 8.5 11.4127ZM11.4127 7C8.97564 7 7 8.97564 7 11.4127C7 13.8498 8.97564 15.8254 11.4127 15.8254C12.3604 15.8254 13.2384 15.5266 13.9575 15.0182L15.9183 16.979C16.2112 17.2719 16.6861 17.2719 16.979 16.979C17.2719 16.6861 17.2719 16.2112 16.979 15.9183L15.0182 13.9575C15.5266 13.2384 15.8254 12.3604 15.8254 11.4127C15.8254 8.97564 13.8498 7 11.4127 7Z" fill="#3F434A"/>
</svg>
