<svg width="40" height="40" viewBox="0 0 40 40" fill="none" xmlns="http://www.w3.org/2000/svg">
<mask id="mask0_14_4461" style="mask-type:alpha" maskUnits="userSpaceOnUse" x="0" y="0" width="40" height="40">
<circle cx="20" cy="20" r="20" fill="#304FFD"/>
</mask>
<g mask="url(#mask0_14_4461)">
<rect width="40" height="40" fill="#04809F"/>
</g>
<path d="M25.862 12.1211L12.9542 17.4583C12.4103 17.6832 12.0463 18.1875 12.0041 18.7744C11.9619 19.3614 12.25 19.9126 12.756 20.213L16.4553 22.2884C17.0215 21.7222 21.3904 18.6096 21.3904 18.6096C21.3904 18.6096 18.2779 22.9785 17.7116 23.5447L19.787 27.244C20.0874 27.75 20.6386 28.0382 21.2256 27.9959C21.8137 27.9536 22.3172 27.5886 22.5417 27.0458L27.8789 14.1379C28.1219 13.5503 27.9935 12.9058 27.5438 12.4562C27.0942 12.0065 26.4497 11.878 25.862 12.1211Z" fill="white"/>
</svg>
