/* XPM */
static char *result[] = {
/* columns rows colors chars-per-pixel */
"32 32 8 1 ",
"  c #7F8E44",
". c #586335",
"X c #ADB834",
"o c #88A3BC",
"O c #9C8BDB",
"+ c #F8F644",
"@ c #E88A36",
"# c white",
/* pixels */
"                                ",
"                                ",
"                                ",
"                                ",
"   .                            ",
"  .X.             o  O          ",
"                 o+oO+O         ",
"                  o. O          ",
"                  .. ..         ",
"                   ...          ",
"                                ",
"                                ",
"                                ",
"                           .    ",
"                          .X.   ",
"                          .     ",
"                                ",
"                                ",
"                                ",
"                                ",
"                                ",
"                                ",
"                                ",
"                                ",
"                                ",
"    @                  .        ",
"   @+@                .X..      ",
"   .@                   .X.     ",
"  ..                            ",
"   .                            ",
"                                ",
"                                "
};
