/* XPM */
static char *result[] = {
/* columns rows colors chars-per-pixel */
"32 32 120 2 ",
"   c #576332",
".  c #A32130",
"X  c #A32230",
"o  c #A42230",
"O  c #B82836",
"+  c #B33C35",
"@  c #B53C35",
"#  c #B43D36",
"$  c #8B6B3C",
"%  c #C75B3B",
"&  c #C85C3C",
"*  c #C95E3C",
"=  c #EA5E3D",
"-  c #EC5C3D",
";  c #ED5D3D",
":  c #ED5F3C",
">  c #E33942",
",  c #E33A42",
"<  c #E53842",
"1  c #E53942",
"2  c #E53A42",
"3  c #9E7542",
"4  c #D87641",
"5  c #D87741",
"6  c #D97841",
"7  c #D87842",
"8  c #A6993D",
"9  c #A7993D",
"0  c #AEB931",
"q  c #E98B33",
"w  c #F38A36",
"e  c #F68A36",
"r  c #F68B36",
"t  c #FBAE31",
"y  c #FEAD31",
"u  c #FCAE31",
"i  c #FEAF31",
"p  c #FEAF32",
"a  c #818C42",
"s  c #818D42",
"d  c #808E42",
"f  c #808F42",
"g  c #818F42",
"h  c #828E42",
"j  c #828F43",
"k  c #9D8742",
"l  c #9B8842",
"z  c #9D8941",
"x  c #829145",
"c  c #839146",
"v  c #DE9C77",
"b  c #DF9D77",
"n  c #DE9E7A",
"m  c #E5A773",
"M  c #E5A874",
"N  c #E6AC7E",
"B  c #E6AD7F",
"V  c #F8F642",
"C  c #F6C26B",
"Z  c #F9C26B",
"A  c #F8C36C",
"S  c #F8C46F",
"D  c #DAB293",
"F  c #D9B395",
"G  c #DAB294",
"H  c #DAB394",
"J  c #DAB496",
"K  c #E6AE80",
"L  c #E7B584",
"P  c #E7B685",
"I  c #E8B28B",
"U  c #E8B38C",
"Y  c #E9B896",
"T  c #E9B897",
"R  c #DDBEAB",
"E  c #DDBEAC",
"W  c #DDBEAD",
"Q  c #E9C699",
"!  c #E9C69A",
"~  c #E9C79A",
"^  c #E9C79B",
"/  c #E9C19D",
"(  c #EAC19D",
")  c #E9C89C",
"_  c #C9D0B8",
"`  c #CBD2BB",
"'  c #CBD2BC",
"]  c #CBD3BC",
"[  c #EACBA4",
"{  c #EBD4AA",
"}  c #EBD5AB",
"|  c #F0F2B8",
" . c #9D8CDC",
".. c #C1CBDB",
"X. c #C1CCDD",
"o. c #C2CCDC",
"O. c #C2CDDD",
"+. c #EAD8C8",
"@. c #EAD9CA",
"#. c #EADACA",
"$. c #EADACB",
"%. c #EBDFD5",
"&. c #ECE7D9",
"*. c #ECE7DA",
"=. c #ECE7DB",
"-. c #ECE8DB",
";. c #CCD7E0",
":. c #CED7E2",
">. c #CED7E3",
",. c #CDD8E1",
"<. c #CFD8E2",
"1. c #CFD8E3",
"2. c #D4D1EA",
"3. c #E9EEED",
"4. c #EBEEEF",
"5. c #ECEFEE",
"6. c #ECEFEF",
"7. c #EBEFF0",
"8. c #EBEFF1",
"9. c #ECEFF0",
/* pixels */
"f f f f f f f f f f f f f f f f f f f f f f f f f f f f f f f f ",
"f f f f f f f f f f f f f f f f f f f f f f f f f f f f f f f f ",
"f f f f f f f f f f f f f f f f f f f f f f f f f f f f f f f f ",
"f f f f f f f f f f f f f f f f f f f f f f f f f f f f f f f f ",
"f f f   f f f f f f f f f f f f f f f f f f f f f f f f f f f f ",
"f f   0   f f f f f f x ` ` ` ` ` ` ;.f f  .f f f f f f f f f f ",
"f f f f f f f f x ` ` ' >.>.>.>.>.>.<.,.2.|  .f f f f f f f f f ",
"f f f f f f f x ] 8.>.>.X.X.X.X.X.X.X.>.1.8._ f f f f f f f f f ",
"f f f f f f x ' >.>.X.o.W E G F ..G F X.X.>.:._ f f f f f f f f ",
"f f f f f f c 7.o.E H R N B ~ ! H ~ ~ E G F O.3.f f f f f f f f ",
"f f f f f f c 4.D B ! T Q M / L m P { B ~ ! J 3.f f f f f f f f ",
"f f f f f f c 6.Q M ( [ L m N U Q M } ~ ( } ) 3.f f f f f f f f ",
"f f f f f f j n =.+.B } Q I m B } Q L L K -.&.C f f f f f f f f ",
"f f f f f f h 7 n 9.#.*.{ Y m M ( } ^ @.$.5.Z t f f f   f f f f ",
"f f f f f f h 5 7 v b S =.%.@.#.%.-.&.A A Z i t f f   0   f f f ",
"f f f f f f h 5 5 5 6 p A A A A A A Z i i i i t f f   f f f f f ",
"f f f f f f h 5 5 5 6 i i i i i i i i i i i i t f f f f f f f f ",
"f f f f f f s + # 5 6 i i i i i i i i i i y ; = f f f f f f f f ",
"f f f f f f d $ X + @ : i i i i i i i y ; - > 3 f f f f f f f f ",
"f f f f f f f a . . o 1 ; ; ; ; ; ; ; - < < , f f f f f f f f f ",
"f f f f f f f a . . o < < < < < < < < < < < , f f f f f f f f f ",
"f f f f f f f a . . o < < < < < < < < < < < , f f f f f f f f f ",
"f f f f f f f d $ . . O < < < < < < < < < > 3 f f f f f f f f f ",
"f f f f f f f f a . . o < < < < < < < < < , f f f f f f f f f f ",
"f f f f f f f f h & % o < < < < < < < 2 e w f f f f f f f f f f ",
"f f f f q f f f h 5 4 * e e e e e e e r i t f   f f f f f f f f ",
"f f f q V q f f g k 5 6 i i i i i i i i u 8   0     f f f f f f ",
"f f f   q f f f f g l z i i i i i i u 9 8 f f f   0   f f f f f ",
"f f     f f f f f f f g 9 9 9 9 9 9 8 f f f f f f f f f f f f f ",
"f f f   f f f f f f f f f f f f f f f f f f f f f f f f f f f f ",
"f f f f f f f f f f f f f f f f f f f f f f f f f f f f f f f f ",
"f f f f f f f f f f f f f f f f f f f f f f f f f f f f f f f f "
};
