/* XPM */
static char *b9ddb47ec2fe41958c3aa1566bf7ff48pEJEng8Y9xGYeLT2[] = {
/* columns rows colors chars-per-pixel */
"32 32 47 1 ",
"  c #733D3B",
". c #576332",
"X c #784340",
"o c #7D4944",
"O c #825049",
"+ c #956C45",
"@ c #996D5E",
"# c #A07E49",
"$ c #A47C4B",
"% c #B2744D",
"& c #BF7C5A",
"* c #9E7363",
"= c #AEB931",
"- c #E98B33",
"; c #808F42",
": c #848C43",
"> c #878B44",
", c #948346",
"< c #928546",
"1 c #9B864C",
"2 c #AC8253",
"3 c #A8806C",
"4 c #B6917A",
"5 c #D5AC49",
"6 c #C5926B",
"7 c #C9906C",
"8 c #CB9470",
"9 c #CD9874",
"0 c #CF9C78",
"q c #F8F642",
"w c #C09E83",
"e c #C5A488",
"r c #D3A982",
"t c #D5A882",
"y c #D3AA87",
"u c #D7AC86",
"i c #D4A988",
"p c #D9B08A",
"a c #DBB48E",
"s c #DCC19D",
"d c #E5C79F",
"f c #E1C8A2",
"g c #E7CCA3",
"h c #E6CEA6",
"j c #E9D0A7",
"k c #EBD4AB",
"l c #9D8CDC",
/* pixels */
";;;;;;;;;;;;;;;;;;;;;;;;;;;;;;;;",
";;;;;;;;;;;;;;;;;;;;;;;;;;;;;;;;",
";;;;;;;;;;;;;;;;;;;;;;;;;;;;;;;;",
";;;;;;;;;;;;;<%%#;;;;;;;;;;;;;;;",
";;;.;;;;;;;<%6ddr%#;;;;;;;;;;;;;",
";;.=.;;;;<%6dgkkjdy%#l;;;;;;;;;;",
";;;;;;;;<6dgkkkkkkjdi5l;;;;;;;;;",
";;;;;;;<6gkkkkkkkkkkji#;;;;;;;;;",
";;;;;;;,8kkkkkkkkkkkkp+;;;;;;;;;",
";;;;;;;,8kkkkkkkkkkkkp$;;;;;;;;;",
";;;;;;<6ga0kkkkkkkka0jr#;;;;;;;;",
";;;;;;,8kp8kkkkkkkkp8kp$;;;;;;;;",
";;;;;;,8a9gkkkkkkkkju0p$;;;;;;;;",
";;;;;;,8jgeOO3kkeOO3jgp$;;;.;;;;",
";;;;;;,8keo  *kkw  X3kp$;;.=.;;;",
";;;;;;,8kw   *e3w   *kp$;;.;;;;;",
";;;;;;;10w  @fw*h4  *a2:;;;;;;;;",
";;;;;;,6ghssfeoX3hssfjr#;;;;;;;;",
";;;;;;:10kkkkw@4*kkkka2:;;;;;;;;",
";;;;;;;;1&&0khfhfka&&2:;;;;;;;;;",
";;;;;;;;,7t9kkkkkkp7t$;;;;;;;;;;",
";;;;;;;;,7p7kkkkkkp8p$;;;;;;;;;;",
";;;;;;;;,9ku&0kka&9gp$;;;;;;;;;;",
";;;;;;;;,7a9du&&9du0p$;;;;;;;;;;",
";;;;;;;;:19ga9ddu0ju2:;;;;;;;;;;",
";;;;-;;;;;10jgkkjga2:;;.;;;;;;;;",
";;;-q-;;;;,8kkkkkkp$;;.=..;;;;;;",
";;;.-;;;;;:10kkkka2:;;;;.=.;;;;;",
";;..;;;;;;;;1&&&&2:;;;;;;;;;;;;;",
";;;.;;;;;;;;;>>>>:;;;;;;;;;;;;;;",
";;;;;;;;;;;;;;;;;;;;;;;;;;;;;;;;",
";;;;;;;;;;;;;;;;;;;;;;;;;;;;;;;;"
};
