/* XPM */
static char *result[] = {
/* columns rows colors chars-per-pixel */
"32 32 75 1 ",
"  c #576332",
". c #285C79",
"X c #32627B",
"o c #736C40",
"O c #967D42",
"+ c #957E42",
"@ c #967F44",
"# c #CE4F44",
"$ c #DF4144",
"% c #CA5243",
"& c #CE5548",
"* c #E55856",
"= c #E55E5B",
"- c #E06159",
"; c #E6645F",
": c #678152",
"> c #6A8252",
", c #AEB931",
"< c #E98B33",
"1 c #818E42",
"2 c #808F42",
"3 c #818F42",
"4 c #848C42",
"5 c #838F44",
"6 c #848E44",
"7 c #938A4B",
"8 c #918C4C",
"9 c #959C59",
"0 c #979C58",
"q c #B48761",
"w c #B68862",
"e c #C28569",
"r c #C4886B",
"t c #EAD84C",
"y c #F8F642",
"u c #165285",
"i c #436D8C",
"p c #406B90",
"a c #497192",
"s c #B8B49E",
"d c #8CA2B8",
"f c #8AA4BC",
"g c #BBB7A3",
"h c #BEB7A3",
"j c #BEB8A4",
"k c #E79C84",
"l c #E79F86",
"z c #CABF93",
"x c #D3BE90",
"c c #E4B190",
"v c #E8B293",
"b c #E9B394",
"n c #E9B596",
"m c #E8B696",
"M c #E8B796",
"N c #E8B897",
"B c #E8B997",
"V c #E6BD9B",
"C c #E9BE9B",
"Z c #E9BF9B",
"A c #DFCDA9",
"S c #EAC6A1",
"D c #E1C8A5",
"F c #EBCCA5",
"G c #EACDA6",
"H c #EBCDA7",
"J c #EACEA7",
"K c #E2CEA9",
"L c #E8D2AB",
"P c #EBD2AA",
"I c #EBD3AA",
"U c #EBD4AB",
"Y c #9F8CD6",
"T c #9D8CDB",
"R c #9D8CDC",
/* pixels */
"22222222222222222222222222222222",
"22222222222222222222222222222222",
"22222222222222222222222222222222",
"22222222222222222222222222222222",
"222 2222222222222222222222222222",
"22 , 2222222225666f22R2222222222",
"22222222222256qeeetdTyR222222222",
"222222222256qeeeeeee8Y3222222222",
"2222222256qeeeeeeeeeeeo632222222",
"22222256qeeeeeeeeeeeeeee86322222",
"222256qeeeeeeeeeeeeeeeeeee863222",
"2224wrrrrrrrrrrrrrrrrrrrrrrr7122",
"222#kMMMMMMMMMMMMMMMMMMMMMMM*O22",
"222&lBMMMMMMMMMMMMMMMMMMMMNB=@22",
"222zLUZBMMMMMMMMMMMMMMMMNBJUK922",
"222.gUUUZBMMMMMMMMMMMMNBJUUUp:22",
"222XjUUUUUZBMMMMMMMMNBJUUUUUa>22",
"222xPUUUUUUUZBMMMMNBJUUUUUUUH022",
"222#bUUUUUUUIPCBBBGPUUUUUUUU=O22",
"222&nUUUUUIPCBJUUUZBGPUUUUUU;@22",
"222zLUUUIPCBJUUUUUUUZBGPUUUUK922",
"222.gUIPCBJUUUUUUUUUUUZBGPUUp:22",
"222XhPCBJUUUUUUUUUUUUUUUZBGPa>22",
"222xmMDALHFPKALHFPKALHFPKAVvS022",
"222%$cius-$cius-$cius-$cius-$+22",
"2222<222222222222222222 22222222",
"222<y<2222222222222222 ,  222222",
"222 <2222222222222222222 , 22222",
"22  2222222222222222222222222222",
"222 2222222222222222222222222222",
"22222222222222222222222222222222",
"22222222222222222222222222222222"
};
