/* XPM */
static char *result[] = {
/* columns rows colors chars-per-pixel */
"32 32 70 1 ",
"  c #50453E",
". c #51453E",
"X c #576332",
"o c #586332",
"O c #202741",
"+ c #212741",
"@ c #202841",
"# c #212841",
"$ c #212842",
"% c #262D4A",
"& c #353E41",
"* c #323C5F",
"= c #4B2B41",
"- c #4F384E",
"; c #374267",
": c #47535F",
"> c #6B7842",
", c #707E4A",
"< c #434B63",
"1 c #9C3A32",
"2 c #A4222E",
"3 c #B22732",
"4 c #D7353E",
"5 c #B7412F",
"6 c #F7771C",
"7 c #E9473A",
"8 c #E9483A",
"9 c #F36A24",
"0 c #BA3642",
"q c #E43A42",
"w c #E53A42",
"e c #967C42",
"r c #CE4D42",
"t c #CF4D42",
"y c #C6646E",
"u c #F5767B",
"i c #F6767B",
"p c #9B963E",
"a c #9B963F",
"s c #9C963F",
"d c #AEB931",
"f c #CC9135",
"g c #CD9135",
"h c #E98B33",
"j c #E99031",
"k c #E2A835",
"l c #E1A836",
"z c #E2A836",
"x c #FCAE32",
"c c #FDAE32",
"v c #FCAF32",
"b c #FDAF32",
"n c #FDAF33",
"m c #808F42",
"M c #808F43",
"N c #8E9D64",
"B c #98A468",
"V c #FBA242",
"C c #F9BD5C",
"Z c #F7826B",
"A c #F8F642",
"S c #556081",
"D c #9DA8BB",
"F c #B3BFBB",
"G c #A2AEC3",
"H c #D4DBCA",
"J c #C1CDDC",
"K c #C0CCDD",
"L c #F0E1C7",
"P c #ECF0F0",
/* pixels */
"mmmmmmmm:;;;;;;;;;;;;;,mmmmmmmmm",
"mmmmmmmm:;;;;;;;;;;;;;,mmmmmmmmm",
"mmmmmm:;;;;;;;;;;;;;;;;;,mmmmmmm",
"mmmmmm:;;;;;;;;;;;;;;;;;,mmmmmmm",
"mmmXmm:;;;;;;;;;;;;;;;;;,mmmmmmm",
"mmXdX&ODS;;;;;;;;;;;;;G<O>mmmmmm",
"mmmmm&O@*;;;;;;;;;;;;;%OO>mmmmmm",
"mmmmm&OOODKKKKKKKS;GK<OOO>mmmmmm",
"mmmmm&OOO@$$$$$$$OO@$OOOO>mmmmmm",
"mmmmm&OOOOOOOOOOOOOOOOOOO>mmmmmm",
"mmmmm&OOOOOf OOOOOOOOOOOO>mmmmmm",
"mmmmm&OOOOOg OOOOOOOOOOOO>mmmmmm",
"mmmmm&OOOOOg OOOOf OOOOOO>mmmmmm",
"mmmmm&OOOOfbvxxxxbvx OOOO>mXmmmm",
"mmmmm&OOOOg.#gbbb.#g OOOO>XdXmmm",
"mmmmm&OOOO+fx.gb.fx.OOOOO>Xmmmmm",
"mmmmm&OOOOyiiVLPCZiu-OOOO>mmmmmm",
"mmmmmm&OOOgbbbnnbbbb OOO>mmmmmmm",
"mmmmmmm&OO0w9666668w=OO>mmmmmmmm",
"mmmmmmmrqqwww96667wwqqqemmmmmmmm",
"mmmmmmmtwwwwwwwwwwwwwwwemmmmmmmm",
"mmmmmmtwwwwwwwwwwwwwwwwwemmmmmmm",
"mmmmmmtwwwwwwwwwwwwwwwwwemmmmmmm",
"mmmmmmtww324wwwwwww32jccammmmmmm",
"mmmmmmlcc522222222222jbbpmmmmmmm",
"mmmmhmkbb54322222224wemommmmmmmm",
"mmmhAhmm124wwwwwwwwwweXdXXmmmmmm",
"mmmXhmmmtwwwwwwwwwwwwemmXdXmmmmm",
"mmXXmmmmmzccccszcccsmmmmmmmmmmmm",
"mmmXmmmmmmzbbbpFJJJNmmmmmmmmmmmm",
"mmmmmmmmmmkbbbpmMMMmmmmmmmmmmmmm",
"mmmmmmmmmmHPPPBmmmmmmmmmmmmmmmmm"
};
