/* XPM */
static char *result[] = {
/* columns rows colors chars-per-pixel */
"32 32 66 1 ",
"  c #808F42",
". c #7D8D41",
"X c #6D7B3B",
"o c #6F7C39",
"O c #7B873F",
"+ c #808E42",
"@ c #818D32",
"# c #849032",
"$ c #7A843F",
"% c #929C39",
"& c #7B8231",
"* c #56492F",
"= c #59382E",
"- c #55362D",
"; c #52332C",
": c #6B5F37",
"> c #7D8A40",
", c #794E38",
"< c #94603F",
"1 c #905F41",
"2 c #754B36",
"3 c #675C35",
"4 c #AE734A",
"5 c #C88855",
"6 c #C98A54",
"7 c #AB7149",
"8 c #6C6438",
"9 c #676236",
"0 c #895D3F",
"q c #86583E",
"w c #6B4733",
"e c #D09952",
"r c #D6A750",
"t c #D7A950",
"y c #CE9553",
"u c #A97048",
"i c #885A3F",
"p c #8A7242",
"a c #726238",
"s c #D5A551",
"d c #6C4A33",
"f c #716237",
"g c #C48353",
"h c #564D30",
"j c #6B4433",
"k c #6C6138",
"l c #A66D47",
"z c #818D34",
"x c #818C33",
"c c #52492E",
"v c #8A5B3B",
"b c #C08152",
"n c #86563A",
"m c #694332",
"M c #724935",
"N c #8D5B3C",
"B c #7D742F",
"V c #8D5D40",
"C c #756436",
"Z c #6A4933",
"A c #848F34",
"S c #5C6834",
"D c #94A13B",
"F c #8C7741",
"G c #875C3B",
"H c white",
/* pixels */
"                                ",
"                                ",
"                                ",
"                                ",
"                                ",
"                                ",
"                                ",
"         .                      ",
"        .XoO    ++++            ",
"        X@#o$$$$$$$+            ",
"        Xo%&*=--;=-:$           ",
"       >O$:=,<11<<12-3$$O .     ",
"      >:;;245666666672;-8Xo.    ",
"      90qw75errtrtty5uwip@@o    ",
"      Xaww7eteyrseeryuwdfX      ",
"       X*d7yrty5gete57who       ",
"        :j75ere66erry7j9..      ",
"      ..3w7yreetreery7wk        ",
"     .Xo3wugysrssrryglw9        ",
"     Xzxcwvlbbbbbbbglnmk        ",
"       X*;wnnnnnnnnnnw;k..      ",
"       >:2M;;-----;;-M2:Xo.     ",
"       3NuNMwNN0nNMMNNuqB@X     ",
"      >:MNNnvvvVCCnNnNN28O      ",
"     Ok1lNvCCZdCA@kdZvNuV8.     ",
"     k0lv0f#@SS@DXSSSf0vlFo.    ",
"    .XCGfSo          oSaC#zX    ",
"    Xz@SX            . X#D      ",
"    .                           ",
"                                ",
"                                ",
"                                "
};
