<svg width="174" height="48" viewBox="0 0 174 48" fill="none" xmlns="http://www.w3.org/2000/svg">
<path d="M29.1293 16.4495C27.179 14.538 24.5499 13.4783 21.8191 13.5029C19.0883 13.5275 16.4788 14.6344 14.5632 16.5807C11.1566 19.987 10.4574 24.7936 12.7375 28.7171L6.95977 34.4962C6.89203 34.5639 6.83829 34.6443 6.80163 34.7327C6.76497 34.8212 6.74609 34.916 6.74609 35.0117C6.74609 35.1075 6.76497 35.2023 6.80163 35.2908C6.83829 35.3792 6.89203 35.4596 6.95977 35.5273L10.053 38.6205C10.1206 38.6883 10.201 38.742 10.2895 38.7787C10.3779 38.8153 10.4727 38.8342 10.5685 38.8342C10.6642 38.8342 10.759 38.8153 10.8475 38.7787C10.936 38.742 11.0163 38.6883 11.084 38.6205L16.8632 32.8428C20.7896 35.1157 25.5975 34.4178 28.9998 31.017C30.9496 29.0836 32.0572 26.4585 32.0816 23.7126C32.1014 22.3659 31.8502 21.029 31.3431 19.7813C30.8359 18.5335 30.0831 17.4005 29.1293 16.4495ZM17.1564 31.309C17.0158 31.2176 16.8481 31.1772 16.6813 31.1943C16.5145 31.2114 16.3585 31.285 16.2393 31.403L10.5684 37.0739L8.50618 35.0117L14.1771 29.3394C14.2958 29.2206 14.3699 29.0644 14.3867 28.8973C14.4036 28.7302 14.3623 28.5624 14.2697 28.4223C13.6063 27.4116 13.1733 26.2673 13.0014 25.0705L20.5064 32.5753C19.3106 32.4033 18.167 31.971 17.1564 31.309ZM27.9685 29.986C26.5428 31.451 24.6605 32.3866 22.6318 32.6387L12.9389 22.9459C13.1927 20.9179 14.1292 19.0367 15.5943 17.6118C17.2365 15.939 19.4751 14.9858 21.8192 14.9612C24.1632 14.9366 26.4213 15.8426 28.0982 17.4805C28.9142 18.2949 29.5582 19.2649 29.992 20.3331C30.4257 21.4012 30.6404 22.5456 30.6233 23.6983C30.6013 26.062 29.6472 28.3216 27.9685 29.986Z" fill="#202020"/>
<mask id="path-2-inside-1_7_3054" fill="white">
<path d="M11.667 12.5625C11.667 11.6972 11.4104 10.8513 10.9297 10.1319C10.4489 9.41242 9.76566 8.85166 8.96623 8.52053C8.16681 8.1894 7.28714 8.10276 6.43847 8.27157C5.58981 8.44038 4.81026 8.85706 4.1984 9.46891C3.58655 10.0808 3.16987 10.8603 3.00106 11.709C2.83225 12.5576 2.91889 13.4373 3.25002 14.2367C3.58115 15.0362 4.14191 15.7194 4.86137 16.2002C5.58084 16.6809 6.4267 16.9375 7.29199 16.9375C8.45232 16.9375 9.56511 16.4766 10.3856 15.6561C11.2061 14.8356 11.667 13.7228 11.667 12.5625ZM4.37533 12.5625C4.37533 11.9856 4.54639 11.4217 4.86687 10.9421C5.18736 10.4624 5.64288 10.0886 6.17583 9.86785C6.70879 9.6471 7.29523 9.58934 7.86101 9.70188C8.42679 9.81442 8.94649 10.0922 9.35439 10.5001C9.76229 10.908 10.0401 11.4277 10.1526 11.9935C10.2652 12.5593 10.2074 13.1457 9.98664 13.6787C9.76589 14.2116 9.39205 14.6671 8.91241 14.9876C8.43276 15.3081 7.86886 15.4792 7.29199 15.4792C6.51845 15.4792 5.77658 15.1719 5.2296 14.6249C4.68262 14.0779 4.37533 13.3361 4.37533 12.5625Z"/>
</mask>
<path d="M11.667 12.5625H9.66699H11.667ZM4.37533 12.5625H2.37533H4.37533ZM7.29199 15.4792V17.4792V15.4792ZM13.667 12.5625C13.667 11.3016 13.2931 10.0691 12.5926 9.02074L9.26673 11.243C9.5277 11.6336 9.66699 12.0928 9.66699 12.5625H13.667ZM12.5926 9.02074C11.8921 7.97238 10.8965 7.15528 9.7316 6.67277L8.20087 10.3683C8.63484 10.548 9.00576 10.8525 9.26673 11.243L12.5926 9.02074ZM9.7316 6.67277C8.56672 6.19026 7.28492 6.06401 6.04829 6.31L6.82865 10.2331C7.28936 10.1415 7.76689 10.1885 8.20087 10.3683L9.7316 6.67277ZM6.04829 6.31C4.81166 6.55598 3.67575 7.16314 2.78419 8.0547L5.61262 10.8831C5.94477 10.551 6.36795 10.3248 6.82865 10.2331L6.04829 6.31ZM2.78419 8.0547C1.89263 8.94626 1.28547 10.0822 1.03949 11.3188L4.96263 12.0992C5.05427 11.6385 5.28047 11.2153 5.61262 10.8831L2.78419 8.0547ZM1.03949 11.3188C0.793507 12.5554 0.919753 13.8372 1.40226 15.0021L5.09778 13.4714C4.91802 13.0374 4.87099 12.5599 4.96263 12.0992L1.03949 11.3188ZM1.40226 15.0021C1.88477 16.167 2.70187 17.1626 3.75023 17.8631L5.97251 14.5372C5.58195 14.2763 5.27754 13.9053 5.09778 13.4714L1.40226 15.0021ZM3.75023 17.8631C4.7986 18.5636 6.03114 18.9375 7.29199 18.9375V14.9375C6.82226 14.9375 6.36308 14.7982 5.97251 14.5372L3.75023 17.8631ZM7.29199 18.9375C8.98275 18.9375 10.6043 18.2659 11.7998 17.0703L8.97137 14.2419C8.52597 14.6873 7.92188 14.9375 7.29199 14.9375V18.9375ZM11.7998 17.0703C12.9953 15.8748 13.667 14.2533 13.667 12.5625H9.66699C9.66699 13.1924 9.41677 13.7965 8.97137 14.2419L11.7998 17.0703ZM6.37533 12.5625C6.37533 12.3812 6.42909 12.204 6.52981 12.0532L3.20394 9.83095C2.66368 10.6395 2.37533 11.5901 2.37533 12.5625H6.37533ZM6.52981 12.0532C6.63054 11.9025 6.7737 11.785 6.9412 11.7156L5.41047 8.02009C4.51206 8.39223 3.74419 9.02241 3.20394 9.83095L6.52981 12.0532ZM6.9412 11.7156C7.1087 11.6462 7.29301 11.6281 7.47083 11.6634L8.25119 7.74031C7.29745 7.5506 6.30887 7.64796 5.41047 8.02009L6.9412 11.7156ZM7.47083 11.6634C7.64864 11.6988 7.81198 11.7861 7.94018 11.9143L10.7686 9.08589C10.081 8.39828 9.20493 7.93002 8.25119 7.74031L7.47083 11.6634ZM7.94018 11.9143C8.06837 12.0425 8.15568 12.2059 8.19105 12.3837L12.1142 11.6033C11.9245 10.6496 11.4562 9.7735 10.7686 9.08589L7.94018 11.9143ZM8.19105 12.3837C8.22642 12.5615 8.20826 12.7458 8.13888 12.9133L11.8344 14.444C12.2065 13.5456 12.3039 12.557 12.1142 11.6033L8.19105 12.3837ZM8.13888 12.9133C8.0695 13.0808 7.95201 13.224 7.80127 13.3247L10.0235 16.6506C10.8321 16.1103 11.4623 15.3424 11.8344 14.444L8.13888 12.9133ZM7.80127 13.3247C7.65052 13.4254 7.47329 13.4792 7.29199 13.4792V17.4792C8.26442 17.4792 9.21501 17.1908 10.0235 16.6506L7.80127 13.3247ZM7.29199 13.4792C7.04888 13.4792 6.81572 13.3826 6.64381 13.2107L3.81539 16.0391C4.73744 16.9612 5.98801 17.4792 7.29199 17.4792V13.4792ZM6.64381 13.2107C6.4719 13.0388 6.37533 12.8056 6.37533 12.5625H2.37533C2.37533 13.8665 2.89333 15.1171 3.81539 16.0391L6.64381 13.2107Z" fill="black" mask="url(#path-2-inside-1_7_3054)"/>
<path d="M59.1564 20.056C59.1564 21.736 58.6057 23.0893 57.5044 24.116C56.4031 25.1427 54.7511 25.656 52.5484 25.656H48.6004V34H46.6404V14.428H52.5484C54.7324 14.428 56.3751 14.9413 57.4764 15.968C58.5964 16.9947 59.1564 18.3573 59.1564 20.056ZM52.5484 23.976C55.6097 23.976 57.1404 22.6693 57.1404 20.056C57.1404 18.7493 56.7764 17.76 56.0484 17.088C55.3204 16.416 54.1537 16.08 52.5484 16.08H48.6004V23.976H52.5484ZM63.4251 15.828C63.0331 15.828 62.6971 15.688 62.4171 15.408C62.1371 15.128 61.9971 14.7827 61.9971 14.372C61.9971 13.9613 62.1371 13.6253 62.4171 13.364C62.6971 13.084 63.0331 12.944 63.4251 12.944C63.8171 12.944 64.1531 13.084 64.4331 13.364C64.7131 13.6253 64.8531 13.9613 64.8531 14.372C64.8531 14.7827 64.7131 15.128 64.4331 15.408C64.1531 15.688 63.8171 15.828 63.4251 15.828ZM64.4051 18.712V34H62.4451V18.712H64.4051ZM76.0115 18.432C77.8408 18.432 79.3342 19.0013 80.4915 20.14C81.6488 21.26 82.2275 22.8933 82.2275 25.04V34H80.2955V25.264C80.2955 23.6027 79.8755 22.3333 79.0355 21.456C78.2142 20.5787 77.0848 20.14 75.6475 20.14C74.1728 20.14 72.9968 20.6067 72.1195 21.54C71.2422 22.4733 70.8035 23.8453 70.8035 25.656V34H68.8435V18.712H70.8035V21.316C71.2888 20.3827 71.9888 19.6733 72.9035 19.188C73.8182 18.684 74.8542 18.432 76.0115 18.432ZM92.9743 18.488C94.4116 18.488 95.6623 18.824 96.7263 19.496C97.7903 20.168 98.5556 21.0173 99.0223 22.044V18.712H100.982V34.392C100.982 35.792 100.674 37.0333 100.058 38.116C99.4609 39.1987 98.6209 40.0293 97.5383 40.608C96.4556 41.2053 95.2236 41.504 93.8423 41.504C91.8823 41.504 90.2489 41.0373 88.9423 40.104C87.6543 39.1707 86.8516 37.9013 86.5343 36.296H88.4663C88.8023 37.36 89.4369 38.2093 90.3703 38.844C91.3223 39.4787 92.4796 39.796 93.8423 39.796C94.8316 39.796 95.7183 39.5813 96.5023 39.152C97.2863 38.7413 97.9023 38.1253 98.3503 37.304C98.7983 36.4827 99.0223 35.512 99.0223 34.392V30.612C98.5369 31.6573 97.7623 32.5253 96.6983 33.216C95.6529 33.888 94.4116 34.224 92.9743 34.224C91.5743 34.224 90.3143 33.8973 89.1943 33.244C88.0929 32.5907 87.2249 31.6667 86.5903 30.472C85.9743 29.2773 85.6663 27.896 85.6663 26.328C85.6663 24.76 85.9743 23.388 86.5903 22.212C87.2249 21.0173 88.0929 20.1027 89.1943 19.468C90.3143 18.8147 91.5743 18.488 92.9743 18.488ZM99.0223 26.356C99.0223 25.124 98.7703 24.0413 98.2663 23.108C97.7623 22.1747 97.0716 21.456 96.1943 20.952C95.3356 20.448 94.3836 20.196 93.3383 20.196C92.2556 20.196 91.2849 20.4387 90.4263 20.924C89.5676 21.4093 88.8863 22.1187 88.3823 23.052C87.8969 23.9667 87.6543 25.0587 87.6543 26.328C87.6543 27.5787 87.8969 28.68 88.3823 29.632C88.8863 30.5653 89.5676 31.284 90.4263 31.788C91.2849 32.2733 92.2556 32.516 93.3383 32.516C94.3836 32.516 95.3356 32.264 96.1943 31.76C97.0716 31.256 97.7623 30.5373 98.2663 29.604C98.7703 28.6707 99.0223 27.588 99.0223 26.356ZM117.973 20.056C117.973 21.736 117.422 23.0893 116.321 24.116C115.219 25.1427 113.567 25.656 111.365 25.656H107.417V34H105.457V14.428H111.365C113.549 14.428 115.191 14.9413 116.293 15.968C117.413 16.9947 117.973 18.3573 117.973 20.056ZM111.365 23.976C114.426 23.976 115.957 22.6693 115.957 20.056C115.957 18.7493 115.593 17.76 114.865 17.088C114.137 16.416 112.97 16.08 111.365 16.08H107.417V23.976H111.365ZM127.953 34.224C126.516 34.224 125.219 33.9067 124.061 33.272C122.923 32.6187 122.017 31.704 121.345 30.528C120.692 29.3333 120.365 27.9427 120.365 26.356C120.365 24.7693 120.701 23.388 121.373 22.212C122.045 21.0173 122.96 20.1027 124.117 19.468C125.275 18.8147 126.572 18.488 128.009 18.488C129.447 18.488 130.744 18.8147 131.901 19.468C133.077 20.1027 133.992 21.0173 134.645 22.212C135.317 23.388 135.653 24.7693 135.653 26.356C135.653 27.924 135.317 29.3053 134.645 30.5C133.973 31.6947 133.049 32.6187 131.873 33.272C130.697 33.9067 129.391 34.224 127.953 34.224ZM127.953 32.516C128.961 32.516 129.895 32.292 130.753 31.844C131.612 31.3773 132.303 30.6867 132.825 29.772C133.367 28.8387 133.637 27.7 133.637 26.356C133.637 25.012 133.376 23.8827 132.853 22.968C132.331 22.0347 131.64 21.344 130.781 20.896C129.923 20.4293 128.989 20.196 127.981 20.196C126.973 20.196 126.04 20.4293 125.181 20.896C124.323 21.344 123.632 22.0347 123.109 22.968C122.605 23.8827 122.353 25.012 122.353 26.356C122.353 27.7 122.605 28.8387 123.109 29.772C123.632 30.6867 124.313 31.3773 125.153 31.844C126.012 32.292 126.945 32.516 127.953 32.516ZM146.394 18.432C148.224 18.432 149.717 19.0013 150.874 20.14C152.032 21.26 152.61 22.8933 152.61 25.04V34H150.678V25.264C150.678 23.6027 150.258 22.3333 149.418 21.456C148.597 20.5787 147.468 20.14 146.03 20.14C144.556 20.14 143.38 20.6067 142.502 21.54C141.625 22.4733 141.186 23.8453 141.186 25.656V34H139.226V18.712H141.186V21.316C141.672 20.3827 142.372 19.6733 143.286 19.188C144.201 18.684 145.237 18.432 146.394 18.432ZM163.357 18.488C164.794 18.488 166.045 18.824 167.109 19.496C168.173 20.168 168.938 21.0173 169.405 22.044V18.712H171.365V34.392C171.365 35.792 171.057 37.0333 170.441 38.116C169.844 39.1987 169.004 40.0293 167.921 40.608C166.838 41.2053 165.606 41.504 164.225 41.504C162.265 41.504 160.632 41.0373 159.325 40.104C158.037 39.1707 157.234 37.9013 156.917 36.296H158.849C159.185 37.36 159.82 38.2093 160.753 38.844C161.705 39.4787 162.862 39.796 164.225 39.796C165.214 39.796 166.101 39.5813 166.885 39.152C167.669 38.7413 168.285 38.1253 168.733 37.304C169.181 36.4827 169.405 35.512 169.405 34.392V30.612C168.92 31.6573 168.145 32.5253 167.081 33.216C166.036 33.888 164.794 34.224 163.357 34.224C161.957 34.224 160.697 33.8973 159.577 33.244C158.476 32.5907 157.608 31.6667 156.973 30.472C156.357 29.2773 156.049 27.896 156.049 26.328C156.049 24.76 156.357 23.388 156.973 22.212C157.608 21.0173 158.476 20.1027 159.577 19.468C160.697 18.8147 161.957 18.488 163.357 18.488ZM169.405 26.356C169.405 25.124 169.153 24.0413 168.649 23.108C168.145 22.1747 167.454 21.456 166.577 20.952C165.718 20.448 164.766 20.196 163.721 20.196C162.638 20.196 161.668 20.4387 160.809 20.924C159.95 21.4093 159.269 22.1187 158.765 23.052C158.28 23.9667 158.037 25.0587 158.037 26.328C158.037 27.5787 158.28 28.68 158.765 29.632C159.269 30.5653 159.95 31.284 160.809 31.788C161.668 32.2733 162.638 32.516 163.721 32.516C164.766 32.516 165.718 32.264 166.577 31.76C167.454 31.256 168.145 30.5373 168.649 29.604C169.153 28.6707 169.405 27.588 169.405 26.356Z" fill="#202020"/>
</svg>
